<svg width="25" height="24" viewBox="0 0 25 24" fill="none" xmlns="http://www.w3.org/2000/svg">
<path d="M19.5 9C19.5 10.45 19.07 11.78 18.33 12.89C17.25 14.49 15.54 15.62 13.55 15.91C13.21 15.97 12.86 16 12.5 16C12.14 16 11.79 15.97 11.45 15.91C9.46 15.62 7.75 14.49 6.67 12.89C5.93 11.78 5.5 10.45 5.5 9C5.5 5.13 8.63 2 12.5 2C16.37 2 19.5 5.13 19.5 9Z" stroke="white" stroke-width="1.5" stroke-linecap="round" stroke-linejoin="round"/>
<path d="M21.7501 18.47L20.1001 18.86C19.7301 18.95 19.4401 19.23 19.3601 19.6L19.0101 21.07C18.8201 21.87 17.8001 22.11 17.2701 21.48L12.5001 16L7.73008 21.49C7.20008 22.12 6.18008 21.88 5.99008 21.08L5.64008 19.61C5.55008 19.24 5.26008 18.95 4.90008 18.87L3.25008 18.48C2.49008 18.3 2.22008 17.35 2.77008 16.8L6.67008 12.9C7.75008 14.5 9.46008 15.63 11.4501 15.92C11.7901 15.98 12.1401 16.01 12.5001 16.01C12.8601 16.01 13.2101 15.98 13.5501 15.92C15.5401 15.63 17.2501 14.5 18.3301 12.9L22.2301 16.8C22.7801 17.34 22.5101 18.29 21.7501 18.47Z" stroke="#FCD34D" stroke-width="1.5" stroke-linecap="round" stroke-linejoin="round"/>
<path d="M13.08 5.98L13.67 7.15999C13.75 7.31999 13.96 7.48 14.15 7.51L15.22 7.68999C15.9 7.79999 16.06 8.3 15.57 8.79L14.74 9.61998C14.6 9.75998 14.52 10.03 14.57 10.23L14.81 11.26C15 12.07 14.57 12.39 13.85 11.96L12.85 11.37C12.67 11.26 12.37 11.26 12.19 11.37L11.19 11.96C10.47 12.38 10.04 12.07 10.23 11.26L10.47 10.23C10.51 10.04 10.44 9.75998 10.3 9.61998L9.46997 8.79C8.97997 8.3 9.13997 7.80999 9.81997 7.68999L10.89 7.51C11.07 7.48 11.28 7.31999 11.36 7.15999L11.95 5.98C12.24 5.34 12.76 5.34 13.08 5.98Z" stroke="#FCD34D" stroke-width="1.5" stroke-linecap="round" stroke-linejoin="round"/>
</svg>
