<svg width="12" height="12" viewBox="0 0 12 12" fill="none" xmlns="http://www.w3.org/2000/svg">
<path fill-rule="evenodd" clip-rule="evenodd" d="M2.3635 1.356C2.5165 1.2065 2.7305 1.109 3.1355 1.056C3.5525 1.001 4.1045 1 4.8965 1H7.1035C7.8955 1 8.4475 1.001 8.8645 1.056C9.2695 1.109 9.4835 1.2065 9.6365 1.356C9.789 1.506 9.8885 1.716 9.943 2.1125C9.999 2.521 10 3.062 10 3.8375V7.757H3.673C3.2215 7.757 2.9135 7.7565 2.6495 7.826C2.4135 7.888 2.1945 7.989 2 8.122V3.838C2 3.062 2.001 2.521 2.057 2.1125C2.1115 1.716 2.211 1.506 2.3635 1.356ZM3.7935 2.892C3.68493 2.89093 3.58037 2.93297 3.50276 3.0089C3.42515 3.08482 3.38082 3.18843 3.3795 3.297C3.3795 3.521 3.5645 3.7025 3.793 3.7025H8.207C8.31548 3.70343 8.41991 3.66134 8.49742 3.58542C8.57492 3.50951 8.61918 3.40598 8.6205 3.2975C8.61931 3.18893 8.57511 3.08527 8.49759 3.00925C8.42007 2.93323 8.31557 2.89107 8.207 2.892H3.7935ZM3.3795 5.189C3.3795 4.9655 3.5645 4.784 3.793 4.784H6.5515C6.66007 4.78293 6.76463 4.82497 6.84224 4.9009C6.91985 4.97682 6.96418 5.08043 6.9655 5.189C6.96431 5.29765 6.92004 5.40139 6.84242 5.47743C6.76479 5.55346 6.66015 5.59557 6.5515 5.5945H3.793C3.68452 5.59543 3.58009 5.55334 3.50258 5.47742C3.42508 5.40151 3.38082 5.29748 3.3795 5.189Z" fill="#94A3B8"/>
<path d="M3.73664 8.56738C3.19714 8.56738 3.00864 8.57088 2.86364 8.60888C2.67045 8.65864 2.49226 8.75465 2.34444 8.88862C2.19662 9.02259 2.0836 9.1905 2.01514 9.37788C2.0228 9.56822 2.0368 9.73805 2.05714 9.88738C2.11164 10.2839 2.21114 10.4939 2.36364 10.6439C2.51664 10.7934 2.73064 10.8909 3.13564 10.9439C3.55264 10.9989 4.10464 10.9999 4.89664 10.9999H7.10364C7.89564 10.9999 8.44764 10.9989 8.86464 10.9444C9.26964 10.8909 9.48364 10.7934 9.63664 10.6439C9.74464 10.5374 9.82664 10.4009 9.88414 10.1889H3.79314C3.68465 10.1898 3.58022 10.1477 3.50272 10.0718C3.42521 9.9959 3.38096 9.89236 3.37964 9.78388C3.37964 9.55988 3.56464 9.37838 3.79314 9.37838H9.98514C9.99514 9.14538 9.99864 8.87838 10.0001 8.56738H3.73664Z" fill="#94A3B8"/>
</svg>
