<svg width="25" height="24" viewBox="0 0 25 24" fill="none" xmlns="http://www.w3.org/2000/svg">
<path d="M4.16663 8V6C4.16663 5.46957 4.37734 4.96086 4.75241 4.58579C5.12749 4.21071 5.63619 4 6.16663 4H8.16663M4.16663 16V18C4.16663 18.5304 4.37734 19.0391 4.75241 19.4142C5.12749 19.7893 5.63619 20 6.16663 20H8.16663M16.1666 4H18.1666C18.6971 4 19.2058 4.21071 19.5808 4.58579C19.9559 4.96086 20.1666 5.46957 20.1666 6V8M16.1666 20H18.1666C18.6971 20 19.2058 19.7893 19.5808 19.4142C19.9559 19.0391 20.1666 18.5304 20.1666 18V16M9.16663 10H9.17663M15.1666 10H15.1766M9.66663 15C9.9925 15.3326 10.3815 15.5968 10.8108 15.7772C11.24 15.9576 11.701 16.0505 12.1666 16.0505C12.6323 16.0505 13.0932 15.9576 13.5225 15.7772C13.9518 15.5968 14.3407 15.3326 14.6666 15" stroke="#0F172A" stroke-width="1.5" stroke-linecap="round" stroke-linejoin="round"/>
</svg>
