<svg width="12" height="12" viewBox="0 0 12 12" fill="none" xmlns="http://www.w3.org/2000/svg">
<path d="M3.86 8.22768L4.7405 7.97368L10.042 2.60868C10.0838 2.56583 10.1071 2.50825 10.1068 2.44837C10.1065 2.3885 10.0827 2.33114 10.0405 2.28868L9.723 1.96768C9.70248 1.9466 9.67797 1.92981 9.6509 1.91831C9.62383 1.9068 9.59473 1.9008 9.56531 1.90066C9.5359 1.90052 9.50675 1.90625 9.47957 1.91749C9.45238 1.92874 9.42772 1.94529 9.407 1.96618L4.1195 7.31718L3.86 8.22768ZM10.3515 1.33168L10.669 1.65318C11.107 2.09668 11.111 2.81218 10.677 3.25118L5.214 8.78018L3.332 9.32218C3.2751 9.33817 3.21562 9.3428 3.15693 9.3358C3.09825 9.3288 3.04152 9.31031 2.98998 9.28139C2.93844 9.25246 2.89311 9.21366 2.85656 9.16722C2.82002 9.12077 2.79298 9.06758 2.777 9.01068C2.75248 8.92818 2.75213 8.84037 2.776 8.75768L3.3235 6.83768L8.772 1.32318C8.8756 1.21886 8.99894 1.13621 9.13482 1.08006C9.2707 1.0239 9.4164 0.995363 9.56343 0.996108C9.71045 0.996853 9.85586 1.02686 9.99116 1.08439C10.1265 1.14192 10.249 1.22631 10.3515 1.33168ZM4.592 1.90818C4.84 1.90818 5.041 2.11168 5.041 2.36268C5.0414 2.42201 5.03009 2.48084 5.00773 2.53581C4.98538 2.59077 4.95241 2.64078 4.91071 2.683C4.86901 2.72521 4.81939 2.75878 4.76471 2.78181C4.71002 2.80483 4.65133 2.81685 4.592 2.81718H2.796C2.3 2.81718 1.898 3.22418 1.898 3.72568V9.17868C1.898 9.68068 2.3 10.0877 2.796 10.0877H8.184C8.68 10.0877 9.0825 9.68068 9.0825 9.17868V7.36118C9.0825 7.11018 9.2835 6.90668 9.5315 6.90668C9.7795 6.90668 9.9805 7.11018 9.9805 7.36168V9.17868C9.9805 10.1827 9.176 10.9967 8.184 10.9967H2.796C1.804 10.9967 1 10.1827 1 9.17868V3.72568C1 2.72218 1.804 1.90818 2.796 1.90818H4.592Z" fill="#94A3B8"/>
</svg>
