<svg width="20" height="21" viewBox="0 0 20 21" fill="none" xmlns="http://www.w3.org/2000/svg">
<path d="M11.5667 17.986C10.9084 17.986 10.1834 17.7526 9.45836 17.2943L7.02502 15.7693C6.85836 15.6693 6.66669 15.611 6.47502 15.611L5.27502 15.611C3.25836 15.611 2.15002 14.5026 2.15002 12.486L2.15002 9.15264C2.15002 7.13598 3.25836 6.02764 5.27502 6.02764L6.46669 6.02764C6.65836 6.02764 6.85002 5.96931 7.01669 5.86931L9.45002 4.34431C10.6667 3.58598 11.85 3.44431 12.7834 3.96098C13.7167 4.47765 14.225 5.55265 14.225 6.99431L14.225 14.636C14.225 16.0693 13.7084 17.1526 12.7834 17.6693C12.4167 17.886 12.0084 17.986 11.5667 17.986ZM5.27502 7.28598C3.95836 7.28598 3.40002 7.84431 3.40002 9.16098L3.40002 12.4943C3.40002 13.811 3.95836 14.3693 5.27502 14.3693L6.46669 14.3693C6.90002 14.3693 7.31669 14.486 7.68336 14.7193L10.1167 16.2443C10.925 16.7443 11.675 16.8776 12.1834 16.5943C12.6917 16.311 12.9834 15.6026 12.9834 14.661L12.9834 7.00264C12.9834 6.05264 12.6917 5.34431 12.1834 5.06931C11.675 4.78598 10.925 4.91098 10.1167 5.41931L7.68336 6.93598C7.31669 7.16931 6.90002 7.28598 6.46669 7.28598L5.27502 7.28598Z" fill="#64748B"/>
<path d="M16.1083 14.786C15.975 14.786 15.85 14.7444 15.7333 14.661C15.4583 14.4527 15.4 14.061 15.6083 13.786C16.9167 12.0444 16.9167 9.61103 15.6083 7.86937C15.4 7.59437 15.4583 7.2027 15.7333 6.99437C16.0083 6.78603 16.4 6.84437 16.6083 7.11937C18.25 9.3027 18.25 12.3527 16.6083 14.536C16.4917 14.7027 16.3 14.786 16.1083 14.786Z" fill="#64748B"/>
</svg>
