<svg width="32" height="33" viewBox="0 0 32 33" fill="none" xmlns="http://www.w3.org/2000/svg">
<path d="M18.6666 4.27588V9.60921C18.6666 9.96283 18.8071 10.302 19.0572 10.552C19.3072 10.8021 19.6463 10.9425 20 10.9425H25.3333" stroke="#0056D2" stroke-width="1.5" stroke-linecap="round" stroke-linejoin="round"/>
<path d="M22.6666 28.2759H9.33329C8.62605 28.2759 7.94777 27.9949 7.44767 27.4948C6.94758 26.9947 6.66663 26.3165 6.66663 25.6092V6.94255C6.66663 6.2353 6.94758 5.55702 7.44767 5.05693C7.94777 4.55683 8.62605 4.27588 9.33329 4.27588H18.6666L25.3333 10.9425V25.6092C25.3333 26.3165 25.0523 26.9947 24.5522 27.4948C24.0521 27.9949 23.3739 28.2759 22.6666 28.2759Z" stroke="#0056D2" stroke-width="1.5" stroke-linecap="round" stroke-linejoin="round"/>
<path d="M12 12.2759H13.3333" stroke="#0056D2" stroke-width="1.5" stroke-linecap="round" stroke-linejoin="round"/>
<path d="M12 17.6094H20" stroke="#0056D2" stroke-width="1.5" stroke-linecap="round" stroke-linejoin="round"/>
<path d="M12 22.9424H20" stroke="#0056D2" stroke-width="1.5" stroke-linecap="round" stroke-linejoin="round"/>
</svg>
