<svg width="24" height="25" viewBox="0 0 24 25" fill="none" xmlns="http://www.w3.org/2000/svg">
<path d="M12.02 3.30078C8.70997 3.30078 6.01997 5.99078 6.01997 9.30078V12.1908C6.01997 12.8008 5.75997 13.7308 5.44997 14.2508L4.29997 16.1608C3.58997 17.3408 4.07997 18.6508 5.37997 19.0908C9.68997 20.5308 14.34 20.5308 18.65 19.0908C19.86 18.6908 20.39 17.2608 19.73 16.1608L18.58 14.2508C18.28 13.7308 18.02 12.8008 18.02 12.1908V9.30078C18.02 6.00078 15.32 3.30078 12.02 3.30078Z" stroke="#0F172A" stroke-width="1.5" stroke-miterlimit="10" stroke-linecap="round"/>
<path d="M13.87 3.59105C13.56 3.50105 13.24 3.43105 12.91 3.39105C11.95 3.27105 11.03 3.34105 10.17 3.59105C10.46 2.85105 11.18 2.33105 12.02 2.33105C12.86 2.33105 13.58 2.85105 13.87 3.59105Z" stroke="#0F172A" stroke-width="1.5" stroke-miterlimit="10" stroke-linecap="round" stroke-linejoin="round"/>
<path d="M15.02 19.4502C15.02 21.1002 13.67 22.4502 12.02 22.4502C11.2 22.4502 10.44 22.1102 9.90002 21.5702C9.36002 21.0302 9.02002 20.2702 9.02002 19.4502" stroke="#0F172A" stroke-width="1.5" stroke-miterlimit="10"/>
</svg>
