<svg width="12" height="12" viewBox="0 0 12 12" fill="none" xmlns="http://www.w3.org/2000/svg">
<path d="M9.75 1.5H2.25C2.05109 1.5 1.86032 1.57902 1.71967 1.71967C1.57902 1.86032 1.5 2.05109 1.5 2.25V9.75C1.5 9.94891 1.57902 10.1397 1.71967 10.2803C1.86032 10.421 2.05109 10.5 2.25 10.5H9.75C9.94891 10.5 10.1397 10.421 10.2803 10.2803C10.421 10.1397 10.5 9.94891 10.5 9.75V2.25C10.5 2.05109 10.421 1.86032 10.2803 1.71967C10.1397 1.57902 9.94891 1.5 9.75 1.5ZM6.77625 8.14031L5.77078 9.14578C5.3823 9.52416 4.86042 9.73432 4.31813 9.73075C3.77583 9.72718 3.25677 9.51017 2.8733 9.1267C2.48983 8.74323 2.27282 8.22417 2.26925 7.68187C2.26568 7.13958 2.47584 6.6177 2.85422 6.22922L3.85969 5.22328C3.8945 5.18844 3.93583 5.1608 3.98132 5.14193C4.02682 5.12306 4.07558 5.11334 4.12483 5.11332C4.17409 5.11329 4.22286 5.12297 4.26837 5.1418C4.31388 5.16063 4.35524 5.18824 4.39008 5.22305C4.42492 5.25786 4.45256 5.29919 4.47143 5.34468C4.4903 5.39018 4.50002 5.43894 4.50004 5.48819C4.50006 5.53745 4.49039 5.58622 4.47156 5.63173C4.45273 5.67724 4.42512 5.7186 4.39031 5.75344L3.38437 6.75937C3.13822 7.00553 2.99993 7.33939 2.99993 7.6875C2.99993 8.03561 3.13822 8.36947 3.38437 8.61563C3.63053 8.86178 3.96439 9.00007 4.3125 9.00007C4.66061 9.00007 4.99447 8.86178 5.24063 8.61563L6.24609 7.60969C6.31646 7.53938 6.41187 7.49991 6.51134 7.49996C6.61081 7.5 6.70618 7.53956 6.77648 7.60992C6.84679 7.68029 6.88626 7.7757 6.88621 7.87517C6.88617 7.97463 6.84662 8.07001 6.77625 8.14031ZM5.14031 7.39031C5.06995 7.46068 4.97451 7.50021 4.875 7.50021C4.77549 7.50021 4.68005 7.46068 4.60969 7.39031C4.53932 7.31995 4.49979 7.22451 4.49979 7.125C4.49979 7.02549 4.53932 6.93005 4.60969 6.85969L6.85969 4.60969C6.89453 4.57485 6.93589 4.54721 6.98141 4.52835C7.02694 4.5095 7.07573 4.49979 7.125 4.49979C7.17427 4.49979 7.22306 4.5095 7.26859 4.52835C7.31411 4.54721 7.35547 4.57485 7.39031 4.60969C7.42515 4.64453 7.45279 4.68589 7.47165 4.73141C7.4905 4.77694 7.50021 4.82573 7.50021 4.875C7.50021 4.92427 7.4905 4.97306 7.47165 5.01859C7.45279 5.06411 7.42515 5.10547 7.39031 5.14031L5.14031 7.39031ZM9.14578 5.77078L8.14031 6.77625C8.07001 6.84662 7.97463 6.88617 7.87517 6.88621C7.7757 6.88626 7.68029 6.84679 7.60992 6.77648C7.53956 6.70618 7.5 6.61081 7.49996 6.51134C7.49991 6.41187 7.53938 6.31646 7.60969 6.24609L8.61563 5.24063C8.86178 4.99447 9.00007 4.66061 9.00007 4.3125C9.00007 3.96439 8.86178 3.63053 8.61563 3.38437C8.36947 3.13822 8.03561 2.99993 7.6875 2.99993C7.33939 2.99993 7.00553 3.13822 6.75937 3.38437L5.75344 4.39031C5.7186 4.42512 5.67724 4.45273 5.63173 4.47156C5.58622 4.49039 5.53745 4.50006 5.48819 4.50004C5.43894 4.50002 5.39018 4.4903 5.34468 4.47143C5.29919 4.45256 5.25786 4.42492 5.22305 4.39008C5.18824 4.35524 5.16063 4.31388 5.1418 4.26837C5.12297 4.22286 5.11329 4.17409 5.11332 4.12483C5.11336 4.02537 5.15292 3.92999 5.22328 3.85969L6.22922 2.85422C6.6177 2.47584 7.13958 2.26568 7.68187 2.26925C8.22417 2.27282 8.74323 2.48983 9.1267 2.8733C9.51017 3.25677 9.72718 3.77583 9.73075 4.31813C9.73432 4.86042 9.52416 5.3823 9.14578 5.77078Z" fill="#94A3B8"/>
</svg>
