<svg width="129" height="131" viewBox="0 0 129 131" fill="none" xmlns="http://www.w3.org/2000/svg">
<path d="M100 49.8994C100 61.2676 96.1771 71.7304 89.839 80.1811C86.3179 84.7082 82.0926 88.7324 77.2636 91.8511C69.4165 96.9819 60.0604 100 50 100C22.334 100 0 77.5654 0 50C0 22.334 22.4346 0 50 0C60.0604 0 69.4165 3.01811 77.2636 8.04829C82.0926 11.167 86.3179 15.1911 89.839 19.7183C96.2777 28.0684 100 38.5312 100 49.8994Z" fill="#EDF5FF"/>
<path d="M79.7443 19.9653H52.3845V9.35352H88.3183C88.4146 9.35352 88.511 9.35352 88.511 9.35352C94.0985 9.45269 98.6264 14.2131 98.6264 20.0645H86.7769" fill="#E2E8F0"/>
<path d="M89.2817 9.35352C87.1623 9.45269 85.2356 10.4445 83.7905 11.8329C83.6942 11.9321 83.5015 12.1304 83.4052 12.3288C82.1528 13.8164 81.2857 15.7999 81.2857 17.8826V81.3552C81.2857 87.3057 76.6616 92.0662 70.8813 92.0662H20.4006V17.3868C20.497 15.2049 21.364 13.2214 22.7127 11.8329C24.2541 10.2461 26.2772 9.35352 28.5893 9.35352H79.2627H88.8964C89.0891 9.35352 89.1854 9.35352 89.2817 9.35352Z" fill="white"/>
<path d="M71.1703 23.8331H56.238C55.66 23.8331 55.2747 23.3372 55.2747 22.8414C55.2747 22.3455 55.7563 21.8496 56.238 21.8496H71.2666C71.8447 21.8496 72.23 22.3455 72.23 22.8414C72.23 23.3372 71.7483 23.8331 71.1703 23.8331Z" fill="#E2E8F0"/>
<path d="M49.2054 23.8331H29.6489C29.0709 23.8331 28.6855 23.3372 28.6855 22.8414C28.6855 22.3455 29.1672 21.8496 29.6489 21.8496H49.2054C49.7834 21.8496 50.1687 22.3455 50.1687 22.8414C50.1687 23.3372 49.7834 23.8331 49.2054 23.8331Z" fill="#E2E8F0"/>
<path d="M61.7294 33.8497H42.2693C41.6913 33.8497 41.3059 33.3538 41.3059 32.858C41.3059 32.2629 41.7876 31.8662 42.2693 31.8662H61.7294C62.3074 31.8662 62.6928 32.3621 62.6928 32.858C62.6928 33.453 62.3074 33.8497 61.7294 33.8497Z" fill="#E2E8F0"/>
<path d="M36.0072 33.8497H29.6489C29.0709 33.8497 28.6855 33.3538 28.6855 32.858C28.6855 32.2629 29.1672 31.8662 29.6489 31.8662H36.0072C36.5852 31.8662 36.9705 32.3621 36.9705 32.858C36.9705 33.453 36.4889 33.8497 36.0072 33.8497Z" fill="#F1F5F9"/>
<path d="M71.1702 43.9659H59.2244C58.6463 43.9659 58.261 43.4701 58.261 42.9742C58.261 42.3791 58.7427 41.9824 59.2244 41.9824H71.1702C71.7482 41.9824 72.1335 42.4783 72.1335 42.9742C72.2299 43.4701 71.7482 43.9659 71.1702 43.9659Z" fill="#F1F5F9"/>
<path d="M53.5405 43.9659H29.6489C29.0709 43.9659 28.6855 43.4701 28.6855 42.9742C28.6855 42.3791 29.1672 41.9824 29.6489 41.9824H53.5405C54.1186 41.9824 54.5039 42.4783 54.5039 42.9742C54.5039 43.4701 54.1186 43.9659 53.5405 43.9659Z" fill="#E2E8F0"/>
<path d="M61.7292 53.9825H48.531C47.953 53.9825 47.5676 53.4867 47.5676 52.9908C47.5676 52.4949 48.0493 51.999 48.531 51.999H61.7292C62.3072 51.999 62.6926 52.4949 62.6926 52.9908C62.6926 53.4867 62.3072 53.9825 61.7292 53.9825Z" fill="#E2E8F0"/>
<path d="M42.8471 53.9825H29.6489C29.0709 53.9825 28.6855 53.4867 28.6855 52.9908C28.6855 52.4949 29.1672 51.999 29.6489 51.999H42.8471C43.4251 51.999 43.8105 52.4949 43.8105 52.9908C43.8105 53.4867 43.4251 53.9825 42.8471 53.9825Z" fill="#F1F5F9"/>
<path d="M71.1703 64.0987H62.0183C61.4403 64.0987 61.0549 63.6029 61.0549 63.107C61.0549 62.5119 61.5366 62.1152 62.0183 62.1152H71.1703C71.7484 62.1152 72.1337 62.6111 72.1337 63.107C72.23 63.6029 71.7484 64.0987 71.1703 64.0987Z" fill="#E2E8F0"/>
<path d="M56.0455 64.0987H40.6316C40.0536 64.0987 39.6682 63.6029 39.6682 63.107C39.6682 62.5119 40.1499 62.1152 40.6316 62.1152H56.0455C56.6236 62.1152 57.0089 62.6111 57.0089 63.107C57.1052 63.6029 56.6236 64.0987 56.0455 64.0987Z" fill="#F1F5F9"/>
<path d="M34.9476 64.0987H29.5527C28.9747 64.0987 28.5894 63.6029 28.5894 63.107C28.5894 62.5119 29.071 62.1152 29.5527 62.1152H34.9476C35.5256 62.1152 35.911 62.6111 35.911 63.107C35.911 63.6029 35.5256 64.0987 34.9476 64.0987Z" fill="#E2E8F0"/>
<path d="M61.7292 74.1154H52.5771C51.9991 74.1154 51.6138 73.6195 51.6138 73.1236C51.6138 72.6277 52.0955 72.1318 52.5771 72.1318H61.7292C62.3072 72.1318 62.6925 72.6277 62.6925 73.1236C62.6925 73.6195 62.3072 74.1154 61.7292 74.1154Z" fill="#E2E8F0"/>
<path d="M46.6043 74.1154H29.6489C29.0709 74.1154 28.6855 73.6195 28.6855 73.1236C28.6855 72.6277 29.1672 72.1318 29.6489 72.1318H46.6043C47.1823 72.1318 47.5676 72.6277 47.5676 73.1236C47.5676 73.6195 47.086 74.1154 46.6043 74.1154Z" fill="#F1F5F9"/>
<path d="M48.7238 83.5371H62.0183C62.0183 85.8182 62.8854 88 64.4268 89.4877C65.8718 90.9753 67.8949 91.9671 70.207 91.9671H10.1889C7.97315 91.9671 5.85373 91.0745 4.40867 89.4877C2.96362 88 2.00024 85.9173 2.00024 83.5371H41.4022C41.4985 83.5371 48.8201 83.6363 48.7238 83.5371Z" fill="#E2E8F0"/>
<g filter="url(#filter0_d_1383_26103)">
<circle cx="85" cy="85" r="15" fill="#23AA26"/>
</g>
<path d="M80.5 85L84.25 88.75L91.75 81.25" stroke="url(#paint0_linear_1383_26103)" stroke-width="3" stroke-linecap="round" stroke-linejoin="round"/>
<defs>
<filter id="filter0_d_1383_26103" x="45.8" y="48" width="82.8" height="82.8" filterUnits="userSpaceOnUse" color-interpolation-filters="sRGB">
<feFlood flood-opacity="0" result="BackgroundImageFix"/>
<feColorMatrix in="SourceAlpha" type="matrix" values="0 0 0 0 0 0 0 0 0 0 0 0 0 0 0 0 0 0 127 0" result="hardAlpha"/>
<feOffset dx="2.2" dy="4.4"/>
<feGaussianBlur stdDeviation="13.2"/>
<feComposite in2="hardAlpha" operator="out"/>
<feColorMatrix type="matrix" values="0 0 0 0 0.0588235 0 0 0 0 0.0901962 0 0 0 0 0.164706 0 0 0 0.08 0"/>
<feBlend mode="normal" in2="BackgroundImageFix" result="effect1_dropShadow_1383_26103"/>
<feBlend mode="normal" in="SourceGraphic" in2="effect1_dropShadow_1383_26103" result="shape"/>
</filter>
<linearGradient id="paint0_linear_1383_26103" x1="91.8704" y1="81.3095" x2="86.5306" y2="91.8152" gradientUnits="userSpaceOnUse">
<stop stop-color="#FCFCFD"/>
<stop offset="1" stop-color="#FCFCFD" stop-opacity="0.8"/>
</linearGradient>
</defs>
</svg>
