<svg width="25" height="25" viewBox="0 0 25 25" fill="none" xmlns="http://www.w3.org/2000/svg">
<path d="M12.2002 21.7637L12.1001 21.6136C11.4055 20.5716 11.0582 20.0506 10.5993 19.6735C10.1931 19.3396 9.72496 19.0891 9.2218 18.9363C8.65345 18.7637 8.0273 18.7637 6.77502 18.7637H5.4002C4.28009 18.7637 3.72004 18.7637 3.29221 18.5457C2.91589 18.3539 2.60993 18.048 2.41818 17.6717C2.2002 17.2438 2.2002 16.6838 2.2002 15.5637V6.96367C2.2002 5.84357 2.2002 5.28351 2.41818 4.85569C2.60993 4.47937 2.91589 4.17341 3.29221 3.98166C3.72004 3.76367 4.28009 3.76367 5.4002 3.76367H5.8002C8.04041 3.76367 9.16051 3.76367 10.0162 4.19965C10.7688 4.58314 11.3807 5.19506 11.7642 5.94771C12.2002 6.80336 12.2002 7.92346 12.2002 10.1637M12.2002 21.7637V10.1637M12.2002 21.7637L12.3003 21.6136C12.9949 20.5716 13.3422 20.0506 13.8011 19.6735C14.2073 19.3396 14.6754 19.0891 15.1786 18.9363C15.7469 18.7637 16.3731 18.7637 17.6254 18.7637H19.0002C20.1203 18.7637 20.6804 18.7637 21.1082 18.5457C21.4845 18.3539 21.7905 18.048 21.9822 17.6717C22.2002 17.2438 22.2002 16.6838 22.2002 15.5637V6.96367C22.2002 5.84357 22.2002 5.28351 21.9822 4.85569C21.7905 4.47937 21.4845 4.17341 21.1082 3.98166C20.6804 3.76367 20.1203 3.76367 19.0002 3.76367H18.6002C16.36 3.76367 15.2399 3.76367 14.3842 4.19965C13.6316 4.58314 13.0197 5.19506 12.6362 5.94771C12.2002 6.80336 12.2002 7.92346 12.2002 10.1637" stroke="white" stroke-width="1.5" stroke-linecap="round" stroke-linejoin="round"/>
</svg>
