<?xml version="1.0" encoding="UTF-8"?>
<svg xmlns="http://www.w3.org/2000/svg" xmlns:xlink="http://www.w3.org/1999/xlink" width="24px" height="23px" viewBox="0 0 24 23" version="1.1">
<defs>
    <clipPath id="clip-circle">
      <circle cx="12" cy="12" r="12" />
    </clipPath>
  </defs>
<g id="surface1" clip-path="url(#clip-circle)">
<path style=" stroke:none;fill-rule:nonzero;fill:rgb(99.607843%,99.607843%,99.607843%);fill-opacity:1;" d="M 1.320312 23 L 22.679688 23 C 23.367188 22.945312 23.917969 22.148438 23.917969 21.183594 L 23.917969 1.816406 C 23.917969 0.820312 23.335938 0.0078125 22.617188 0 L 1.382812 0 C 0.664062 0.0078125 0.0820312 0.820312 0.0820312 1.816406 L 0.0820312 21.179688 C 0.0820312 22.148438 0.632812 22.945312 1.320312 23 Z M 1.320312 23 "/>
<path style=" stroke:none;fill-rule:nonzero;fill:rgb(78.431373%,6.27451%,18.039216%);fill-opacity:1;" d="M 10.332031 13.792969 L 10.332031 23 L 13.648438 23 L 13.648438 13.792969 L 23.917969 13.792969 L 23.917969 9.195312 L 13.648438 9.195312 L 13.648438 0 L 10.332031 0 L 10.332031 9.195312 L 0.0820312 9.195312 L 0.0820312 13.792969 Z M 10.332031 13.792969 "/>
<path style=" stroke:none;fill-rule:nonzero;fill:rgb(0.392157%,12.941176%,41.176471%);fill-opacity:1;" d="M 14.753906 7.445312 L 14.753906 0 L 22.628906 0 C 23.171875 0.0117188 23.636719 0.484375 23.828125 1.148438 Z M 14.753906 7.445312 "/>
<path style=" stroke:none;fill-rule:nonzero;fill:rgb(0.392157%,12.941176%,41.176471%);fill-opacity:1;" d="M 14.753906 15.554688 L 14.753906 23 L 22.679688 23 C 23.203125 22.957031 23.640625 22.492188 23.828125 21.851562 Z M 14.753906 15.554688 "/>
<path style=" stroke:none;fill-rule:nonzero;fill:rgb(0.392157%,12.941176%,41.176471%);fill-opacity:1;" d="M 9.226562 15.554688 L 9.226562 23 L 1.320312 23 C 0.796875 22.957031 0.355469 22.492188 0.171875 21.839844 Z M 9.226562 15.554688 "/>
<path style=" stroke:none;fill-rule:nonzero;fill:rgb(0.392157%,12.941176%,41.176471%);fill-opacity:1;" d="M 9.226562 7.445312 L 9.226562 0 L 1.371094 0 C 0.828125 0.0117188 0.359375 0.492188 0.171875 1.160156 Z M 9.226562 7.445312 "/>
<path style=" stroke:none;fill-rule:nonzero;fill:rgb(0.392157%,12.941176%,41.176471%);fill-opacity:1;" d="M 0.0820312 7.667969 L 3.386719 7.667969 L 0.0820312 5.371094 Z M 0.0820312 7.667969 "/>
<path style=" stroke:none;fill-rule:nonzero;fill:rgb(0.392157%,12.941176%,41.176471%);fill-opacity:1;" d="M 23.917969 7.667969 L 20.597656 7.667969 L 23.917969 5.359375 Z M 23.917969 7.667969 "/>
<path style=" stroke:none;fill-rule:nonzero;fill:rgb(0.392157%,12.941176%,41.176471%);fill-opacity:1;" d="M 23.917969 15.332031 L 20.597656 15.332031 L 23.917969 17.640625 Z M 23.917969 15.332031 "/>
<path style=" stroke:none;fill-rule:nonzero;fill:rgb(0.392157%,12.941176%,41.176471%);fill-opacity:1;" d="M 0.0820312 15.332031 L 3.386719 15.332031 L 0.0820312 17.628906 Z M 0.0820312 15.332031 "/>
<path style=" stroke:none;fill-rule:nonzero;fill:rgb(78.431373%,6.27451%,18.039216%);fill-opacity:1;" d="M 23.917969 1.945312 L 15.691406 7.667969 L 17.53125 7.667969 L 23.917969 3.234375 Z M 23.917969 1.945312 "/>
<path style=" stroke:none;fill-rule:nonzero;fill:rgb(78.431373%,6.27451%,18.039216%);fill-opacity:1;" d="M 8.289062 15.332031 L 6.449219 15.332031 L 0.0820312 19.753906 L 0.0820312 21.042969 L 8.308594 15.332031 Z M 8.289062 15.332031 "/>
<path style=" stroke:none;fill-rule:nonzero;fill:rgb(78.431373%,6.27451%,18.039216%);fill-opacity:1;" d="M 4.625 7.671875 L 6.464844 7.671875 L 0.0820312 3.242188 L 0.0820312 4.523438 Z M 4.625 7.671875 "/>
<path style=" stroke:none;fill-rule:nonzero;fill:rgb(78.431373%,6.27451%,18.039216%);fill-opacity:1;" d="M 19.355469 15.328125 L 17.515625 15.328125 L 23.917969 19.777344 L 23.917969 18.496094 Z M 19.355469 15.328125 "/>
</g>
</svg>
