<svg width="44" height="44" viewBox="0 0 44 44" fill="none" xmlns="http://www.w3.org/2000/svg">
<rect x="0.5" y="0.5" width="43" height="43" rx="21.5" stroke="#F1F5F9"/>
<path d="M16.1667 15.3334H19.5L21.1667 19.5L19.0833 20.75C19.9758 22.5596 21.4404 24.0242 23.25 24.9167L24.5 22.8334L28.6667 24.5V27.8334C28.6667 28.2754 28.4911 28.6993 28.1785 29.0119C27.866 29.3244 27.442 29.5 27 29.5C23.7494 29.3025 20.6835 27.9221 18.3807 25.6194C16.0779 23.3166 14.6975 20.2507 14.5 17C14.5 16.558 14.6756 16.1341 14.9882 15.8215C15.3007 15.509 15.7246 15.3334 16.1667 15.3334" stroke="#0F172A" stroke-width="1.5" stroke-linecap="round" stroke-linejoin="round"/>
</svg>
