<svg width="201" height="142" viewBox="0 0 201 142" fill="none" xmlns="http://www.w3.org/2000/svg">
<path d="M162.5 0.390625H42.5C36.9772 0.390625 32.5 4.86778 32.5 10.3906V130.391C32.5 135.913 36.9772 140.391 42.5 140.391H162.5C168.023 140.391 172.5 135.913 172.5 130.391V10.3906C172.5 4.86778 168.023 0.390625 162.5 0.390625Z" fill="url(#paint0_linear_1532_18730)"/>
<g filter="url(#filter0_d_1532_18730)">
<path d="M54.5 54.3906H189.5C190.826 54.3906 192.098 54.9174 193.036 55.8551C193.973 56.7928 194.5 58.0645 194.5 59.3906V84.3906C194.5 85.7167 193.973 86.9885 193.036 87.9262C192.098 88.8638 190.826 89.3906 189.5 89.3906H54.5C53.1739 89.3906 51.9021 88.8638 50.9645 87.9262C50.0268 86.9885 49.5 85.7167 49.5 84.3906V59.3906C49.5 58.0645 50.0268 56.7928 50.9645 55.8551C51.9021 54.9174 53.1739 54.3906 54.5 54.3906V54.3906Z" fill="white"/>
</g>
<path d="M128.5 62.3906H102.5C100.843 62.3906 99.5 63.7338 99.5 65.3906C99.5 67.0475 100.843 68.3906 102.5 68.3906H128.5C130.157 68.3906 131.5 67.0475 131.5 65.3906C131.5 63.7338 130.157 62.3906 128.5 62.3906Z" fill="#96CBFA"/>
<path d="M146.5 75.3906H102.5C100.843 75.3906 99.5 76.7338 99.5 78.3906C99.5 80.0475 100.843 81.3906 102.5 81.3906H146.5C148.157 81.3906 149.5 80.0475 149.5 78.3906C149.5 76.7338 148.157 75.3906 146.5 75.3906Z" fill="#EDF5FF"/>
<path d="M80 81.3906C85.2467 81.3906 89.5 77.1373 89.5 71.8906C89.5 66.6439 85.2467 62.3906 80 62.3906C74.7533 62.3906 70.5 66.6439 70.5 71.8906C70.5 77.1373 74.7533 81.3906 80 81.3906Z" fill="#3886E3"/>
<path d="M79.203 74.3906H79.987L78.167 69.5676H77.362L75.542 74.3906H76.333L76.795 73.1866H78.741L79.203 74.3906ZM77.768 70.4986L78.489 72.5216H77.047L77.768 70.4986ZM82.5872 70.2536C83.1122 70.2536 83.3292 70.6946 83.3292 71.1006C83.3292 71.5136 83.0912 71.9406 82.5592 71.9406H81.4112V70.2536H82.5872ZM80.6622 74.3906H81.4112V72.6196H82.6012C83.6372 72.6196 84.0712 71.8636 84.0712 71.1006C84.0712 70.3376 83.6372 69.5676 82.6012 69.5676H80.6622V74.3906Z" fill="white"/>
<g filter="url(#filter1_d_1532_18730)">
<path d="M11.5 97.3906H146.5C147.826 97.3906 149.098 97.9174 150.036 98.8551C150.973 99.7928 151.5 101.065 151.5 102.391V127.391C151.5 128.717 150.973 129.988 150.036 130.926C149.098 131.864 147.826 132.391 146.5 132.391H11.5C10.1739 132.391 8.90215 131.864 7.96447 130.926C7.02678 129.988 6.5 128.717 6.5 127.391V102.391C6.5 101.065 7.02678 99.7928 7.96447 98.8551C8.90215 97.9174 10.1739 97.3906 11.5 97.3906V97.3906Z" fill="white"/>
</g>
<path d="M85.5 105.391H59.5C57.8431 105.391 56.5 106.734 56.5 108.391C56.5 110.047 57.8431 111.391 59.5 111.391H85.5C87.1569 111.391 88.5 110.047 88.5 108.391C88.5 106.734 87.1569 105.391 85.5 105.391Z" fill="#96CBFA"/>
<path d="M103.5 118.391H59.5C57.8431 118.391 56.5 119.734 56.5 121.391C56.5 123.047 57.8431 124.391 59.5 124.391H103.5C105.157 124.391 106.5 123.047 106.5 121.391C106.5 119.734 105.157 118.391 103.5 118.391Z" fill="#EDF5FF"/>
<path d="M24 124.391C29.2467 124.391 33.5 120.137 33.5 114.891C33.5 109.644 29.2467 105.391 24 105.391C18.7533 105.391 14.5 109.644 14.5 114.891C14.5 120.137 18.7533 124.391 24 124.391Z" fill="#3886E3"/>
<path d="M20.423 118.022C21.515 118.022 21.928 117.301 21.928 116.447V111.568H21.207V116.447C21.207 116.923 20.99 117.329 20.423 117.329C20.367 117.329 20.052 117.315 19.933 117.273L19.863 117.945C20.045 117.987 20.29 118.022 20.423 118.022ZM24.6431 116.461C25.6161 116.461 26.2741 115.824 26.2741 115.019C26.2741 114.312 25.7631 113.871 24.9511 113.668L24.3421 113.514C23.7331 113.36 23.6841 113.038 23.6841 112.884C23.6841 112.443 24.0901 112.17 24.5451 112.17C25.0421 112.17 25.3991 112.478 25.3991 112.933H26.1131C26.1131 112.058 25.4341 111.512 24.5661 111.512C23.7121 111.512 22.9631 112.051 22.9631 112.898C22.9631 113.297 23.1311 113.906 24.1601 114.165L24.7761 114.319C25.1681 114.424 25.5531 114.627 25.5531 115.054C25.5531 115.453 25.2171 115.803 24.6431 115.803C24.0411 115.803 23.6561 115.404 23.6421 114.991H22.9281C22.9281 115.768 23.6141 116.461 24.6431 116.461Z" fill="white"/>
<g filter="url(#filter2_d_1532_18730)">
<path d="M146.5 11.3906H11.5C8.73858 11.3906 6.5 13.6292 6.5 16.3906V41.3906C6.5 44.1521 8.73858 46.3906 11.5 46.3906H146.5C149.261 46.3906 151.5 44.1521 151.5 41.3906V16.3906C151.5 13.6292 149.261 11.3906 146.5 11.3906Z" fill="white"/>
</g>
<path d="M83.5 19.3906H57.5C55.8431 19.3906 54.5 20.7338 54.5 22.3906C54.5 24.0475 55.8431 25.3906 57.5 25.3906H83.5C85.1569 25.3906 86.5 24.0475 86.5 22.3906C86.5 20.7338 85.1569 19.3906 83.5 19.3906Z" fill="#96CBFA"/>
<path d="M101.5 32.3906H57.5C55.8431 32.3906 54.5 33.7338 54.5 35.3906C54.5 37.0475 55.8431 38.3906 57.5 38.3906H101.5C103.157 38.3906 104.5 37.0475 104.5 35.3906C104.5 33.7338 103.157 32.3906 101.5 32.3906Z" fill="#EDF5FF"/>
<path d="M37 38.3906C42.2467 38.3906 46.5 34.1373 46.5 28.8906C46.5 23.6439 42.2467 19.3906 37 19.3906C31.7533 19.3906 27.5 23.6439 27.5 28.8906C27.5 34.1373 31.7533 38.3906 37 38.3906Z" fill="#3886E3"/>
<path d="M31.1753 27.9906C31.1753 28.7746 31.8753 29.4606 32.8763 29.4606C33.7933 29.4606 34.4443 28.9216 34.5213 28.1656C34.5983 27.4656 34.1993 26.9266 33.2193 26.6676L32.6033 26.5066C32.0293 26.3596 31.9593 26.0656 31.9593 25.8766C31.9593 25.4846 32.3443 25.2116 32.7923 25.2116C33.2963 25.2116 33.6323 25.4916 33.6323 25.9396H34.3743C34.3743 25.0576 33.7023 24.5116 32.8063 24.5116C31.9593 24.5116 31.2173 25.0646 31.2173 25.8906C31.2173 26.3176 31.3783 26.9056 32.4143 27.1856L33.0233 27.3396C33.4713 27.4446 33.8143 27.6756 33.7863 28.1236C33.7373 28.4806 33.4433 28.7816 32.8763 28.7816C32.2953 28.7816 31.9383 28.3826 31.9173 27.9906H31.1753ZM36.2168 25.2606H37.3508C38.2958 25.2606 38.7788 26.0376 38.7788 26.9896C38.7788 27.9486 38.2958 28.7046 37.3508 28.7046H36.2168V25.2606ZM37.3508 29.3906C38.7228 29.3906 39.5208 28.3616 39.5208 26.9896C39.5208 25.6176 38.7228 24.5676 37.3508 24.5676H35.4748V29.3906H37.3508Z" fill="white"/>
<defs>
<filter id="filter0_d_1532_18730" x="43.5" y="51.3906" width="157" height="47" filterUnits="userSpaceOnUse" color-interpolation-filters="sRGB">
<feFlood flood-opacity="0" result="BackgroundImageFix"/>
<feColorMatrix in="SourceAlpha" type="matrix" values="0 0 0 0 0 0 0 0 0 0 0 0 0 0 0 0 0 0 127 0" result="hardAlpha"/>
<feOffset dy="3"/>
<feGaussianBlur stdDeviation="3"/>
<feColorMatrix type="matrix" values="0 0 0 0 0 0 0 0 0 0 0 0 0 0 0 0 0 0 0.161 0"/>
<feBlend mode="normal" in2="BackgroundImageFix" result="effect1_dropShadow_1532_18730"/>
<feBlend mode="normal" in="SourceGraphic" in2="effect1_dropShadow_1532_18730" result="shape"/>
</filter>
<filter id="filter1_d_1532_18730" x="0.5" y="94.3906" width="157" height="47" filterUnits="userSpaceOnUse" color-interpolation-filters="sRGB">
<feFlood flood-opacity="0" result="BackgroundImageFix"/>
<feColorMatrix in="SourceAlpha" type="matrix" values="0 0 0 0 0 0 0 0 0 0 0 0 0 0 0 0 0 0 127 0" result="hardAlpha"/>
<feOffset dy="3"/>
<feGaussianBlur stdDeviation="3"/>
<feColorMatrix type="matrix" values="0 0 0 0 0 0 0 0 0 0 0 0 0 0 0 0 0 0 0.161 0"/>
<feBlend mode="normal" in2="BackgroundImageFix" result="effect1_dropShadow_1532_18730"/>
<feBlend mode="normal" in="SourceGraphic" in2="effect1_dropShadow_1532_18730" result="shape"/>
</filter>
<filter id="filter2_d_1532_18730" x="0.5" y="8.39062" width="157" height="47" filterUnits="userSpaceOnUse" color-interpolation-filters="sRGB">
<feFlood flood-opacity="0" result="BackgroundImageFix"/>
<feColorMatrix in="SourceAlpha" type="matrix" values="0 0 0 0 0 0 0 0 0 0 0 0 0 0 0 0 0 0 127 0" result="hardAlpha"/>
<feOffset dy="3"/>
<feGaussianBlur stdDeviation="3"/>
<feColorMatrix type="matrix" values="0 0 0 0 0 0 0 0 0 0 0 0 0 0 0 0 0 0 0.161 0"/>
<feBlend mode="normal" in2="BackgroundImageFix" result="effect1_dropShadow_1532_18730"/>
<feBlend mode="normal" in="SourceGraphic" in2="effect1_dropShadow_1532_18730" result="shape"/>
</filter>
<linearGradient id="paint0_linear_1532_18730" x1="102.5" y1="0.390625" x2="102.5" y2="140.391" gradientUnits="userSpaceOnUse">
<stop stop-color="#E3ECFA"/>
<stop offset="1" stop-color="#DAE7FF"/>
</linearGradient>
</defs>
</svg>
