<svg width="24" height="25" viewBox="0 0 24 25" fill="none" xmlns="http://www.w3.org/2000/svg">
<path d="M4 7.39062V6.39062C4 5.86019 4.21071 5.35148 4.58579 4.97641C4.96086 4.60134 5.46957 4.39063 6 4.39062H8M4 17.3906V18.3906C4 18.9211 4.21071 19.4298 4.58579 19.8048C4.96086 20.1799 5.46957 20.3906 6 20.3906H8M16 4.39062H18C18.5304 4.39063 19.0391 4.60134 19.4142 4.97641C19.7893 5.35148 20 5.86019 20 6.39062V7.39062M16 20.3906H18C18.5304 20.3906 19.0391 20.1799 19.4142 19.8048C19.7893 19.4298 20 18.9211 20 18.3906V17.3906M5 12.3906H19" stroke="#0F172A" stroke-width="1.5" stroke-linecap="round" stroke-linejoin="round"/>
</svg>
