<svg width="16" height="17" viewBox="0 0 16 17" fill="none" xmlns="http://www.w3.org/2000/svg">
<mask id="path-1-inside-1_2746_24975" fill="white">
<path d="M13.5 2.90088H2.5C2.26794 2.90088 2.04538 2.99307 1.88128 3.15716C1.71719 3.32125 1.625 3.54381 1.625 3.77588V13.7759C1.62498 13.8398 1.6413 13.9026 1.6724 13.9585C1.7035 14.0143 1.74835 14.0613 1.80271 14.0949C1.85706 14.1285 1.9191 14.1477 1.98294 14.1506C2.04679 14.1535 2.11032 14.14 2.1675 14.1115L4 13.1953L5.8325 14.1115C5.88452 14.1375 5.94186 14.151 6 14.151C6.05814 14.151 6.11548 14.1375 6.1675 14.1115L8 13.1953L9.8325 14.1115C9.88452 14.1375 9.94186 14.151 10 14.151C10.0581 14.151 10.1155 14.1375 10.1675 14.1115L12 13.1953L13.8325 14.1115C13.8845 14.1374 13.9419 14.1509 14 14.1509C14.0696 14.151 14.1378 14.1315 14.1969 14.0946C14.2513 14.0611 14.2962 14.0142 14.3274 13.9584C14.3585 13.9026 14.3749 13.8398 14.375 13.7759V3.77588C14.375 3.54381 14.2828 3.32125 14.1187 3.15716C13.9546 2.99307 13.7321 2.90088 13.5 2.90088ZM13.625 13.169L12.1675 12.4403C12.1155 12.4143 12.0581 12.4008 12 12.4008C11.9419 12.4008 11.8845 12.4143 11.8325 12.4403L10 13.3565L8.1675 12.4403C8.11548 12.4143 8.05814 12.4008 8 12.4008C7.94186 12.4008 7.88452 12.4143 7.8325 12.4403L6 13.3565L4.1675 12.4403C4.11548 12.4143 4.05814 12.4008 4 12.4008C3.94186 12.4008 3.88452 12.4143 3.8325 12.4403L2.375 13.169V3.77588C2.375 3.74273 2.38817 3.71093 2.41161 3.68749C2.43505 3.66405 2.46685 3.65088 2.5 3.65088H13.5C13.5332 3.65088 13.5649 3.66405 13.5884 3.68749C13.6118 3.71093 13.625 3.74273 13.625 3.77588V13.169ZM6.33563 6.1065C6.30452 6.0441 6.25664 5.9916 6.19735 5.95491C6.13807 5.91822 6.06972 5.89878 6 5.89878C5.93028 5.89878 5.86193 5.91822 5.80265 5.95491C5.74336 5.9916 5.69548 6.0441 5.66437 6.1065L3.66438 10.1065C3.64238 10.1506 3.62928 10.1986 3.62582 10.2477C3.62237 10.2968 3.62862 10.3462 3.64424 10.3929C3.65985 10.4396 3.68451 10.4828 3.71681 10.52C3.74911 10.5572 3.78843 10.5876 3.8325 10.6096C3.87657 10.6316 3.92455 10.6447 3.97369 10.6482C4.02283 10.6516 4.07216 10.6454 4.11888 10.6298C4.1656 10.6142 4.20879 10.5895 4.24598 10.5572C4.28317 10.5249 4.31363 10.4856 4.33563 10.4415L4.73187 9.65088H7.26813L7.66437 10.4434C7.7088 10.5324 7.78676 10.6001 7.88112 10.6316C7.97547 10.6632 8.07849 10.6559 8.1675 10.6115C8.25651 10.5671 8.32423 10.4891 8.35576 10.3948C8.38729 10.3004 8.38005 10.1974 8.33562 10.1084L6.33563 6.1065ZM5.10687 8.90088L6 7.11463L6.89313 8.90088H5.10687ZM12.375 8.27588C12.375 8.37533 12.3355 8.47072 12.2652 8.54104C12.1948 8.61137 12.0995 8.65088 12 8.65088H10.875V9.77588C10.875 9.87533 10.8355 9.97072 10.7652 10.041C10.6948 10.1114 10.5995 10.1509 10.5 10.1509C10.4005 10.1509 10.3052 10.1114 10.2348 10.041C10.1645 9.97072 10.125 9.87533 10.125 9.77588V8.65088H9C8.90054 8.65088 8.80516 8.61137 8.73483 8.54104C8.66451 8.47072 8.625 8.37533 8.625 8.27588C8.625 8.17642 8.66451 8.08104 8.73483 8.01071C8.80516 7.94039 8.90054 7.90088 9 7.90088H10.125V6.77588C10.125 6.67642 10.1645 6.58104 10.2348 6.51071C10.3052 6.44039 10.4005 6.40088 10.5 6.40088C10.5995 6.40088 10.6948 6.44039 10.7652 6.51071C10.8355 6.58104 10.875 6.67642 10.875 6.77588V7.90088H12C12.0995 7.90088 12.1948 7.94039 12.2652 8.01071C12.3355 8.08104 12.375 8.17642 12.375 8.27588Z"/>
</mask>
<path d="M13.5 2.90088V1.40088V2.90088ZM2.5 2.90088V1.40088V2.90088ZM1.625 3.77588H0.125H1.625ZM1.625 13.7759L3.125 13.7763V13.7759H1.625ZM2.1675 14.1115L2.8375 15.4536L2.83832 15.4531L2.1675 14.1115ZM4 13.1953L4.67082 11.8536L4 11.5182L3.32918 11.8536L4 13.1953ZM5.8325 14.1115L5.16168 15.4531L5.1625 15.4536L5.8325 14.1115ZM6.1675 14.1115L6.8375 15.4536L6.83832 15.4531L6.1675 14.1115ZM8 13.1953L8.67082 11.8536L8 11.5182L7.32918 11.8536L8 13.1953ZM9.8325 14.1115L9.16168 15.4531L9.1625 15.4536L9.8325 14.1115ZM10 14.151V15.651V14.151ZM10.1675 14.1115L10.8375 15.4536L10.8383 15.4531L10.1675 14.1115ZM12 13.1953L12.6708 11.8536L12 11.5182L11.3292 11.8536L12 13.1953ZM13.8325 14.1115L13.1617 15.4531L13.1634 15.454L13.8325 14.1115ZM14 14.1509L14.0023 12.6509L13.9991 12.6509L14 14.1509ZM14.1969 14.0946L13.4094 12.818L13.4024 12.8223L14.1969 14.0946ZM14.375 13.7759L15.875 13.7775V13.7759H14.375ZM13.625 13.169L12.9542 14.5106L15.125 15.5961V13.169H13.625ZM12.1675 12.4403L12.8383 11.0986L12.8375 11.0982L12.1675 12.4403ZM12 12.4008V10.9008V12.4008ZM11.8325 12.4403L11.1625 11.0982L11.1617 11.0986L11.8325 12.4403ZM10 13.3565L9.32918 14.6981L10 15.0336L10.6708 14.6981L10 13.3565ZM8.1675 12.4403L8.83832 11.0986L8.8375 11.0982L8.1675 12.4403ZM8 12.4008V10.9008V12.4008ZM7.8325 12.4403L7.1625 11.0982L7.16168 11.0986L7.8325 12.4403ZM6 13.3565L5.32918 14.6981L6 15.0336L6.67082 14.6981L6 13.3565ZM4.1675 12.4403L4.83832 11.0986L4.8375 11.0982L4.1675 12.4403ZM3.8325 12.4403L3.1625 11.0982L3.16168 11.0986L3.8325 12.4403ZM2.375 13.169H0.875V15.5961L3.04582 14.5106L2.375 13.169ZM6.33563 6.1065L4.99312 6.7756L4.99386 6.77707L6.33563 6.1065ZM5.66437 6.1065L7.00602 6.77732L7.00687 6.7756L5.66437 6.1065ZM3.66438 10.1065L2.32273 9.43568L2.32223 9.43668L3.66438 10.1065ZM3.62582 10.2477L5.12213 10.3529L3.62582 10.2477ZM4.33563 10.4415L2.99462 9.76941L2.99348 9.77168L4.33563 10.4415ZM4.73187 9.65088V8.15088H3.80581L3.39087 8.97879L4.73187 9.65088ZM7.26813 9.65088L8.60977 8.98006L8.19518 8.15088H7.26813V9.65088ZM7.66437 10.4434L9.00652 9.77356L9.00602 9.77256L7.66437 10.4434ZM8.33562 10.1084L9.67776 9.43856L9.67739 9.43781L8.33562 10.1084ZM5.10687 8.90088L3.76523 8.23006L2.67982 10.4009H5.10687V8.90088ZM6 7.11463L7.34164 6.44381L6 3.76053L4.65836 6.44381L6 7.11463ZM6.89313 8.90088V10.4009H9.32018L8.23477 8.23006L6.89313 8.90088ZM10.875 8.65088V7.15088H9.375V8.65088H10.875ZM10.125 8.65088H11.625V7.15088H10.125V8.65088ZM10.125 7.90088V9.40088H11.625V7.90088H10.125ZM10.875 7.90088H9.375V9.40088H10.875V7.90088ZM13.5 1.40088H2.5V4.40088H13.5V1.40088ZM2.5 1.40088C1.87011 1.40088 1.26602 1.6511 0.820622 2.0965L2.94194 4.21782C2.82473 4.33503 2.66576 4.40088 2.5 4.40088V1.40088ZM0.820622 2.0965C0.375223 2.5419 0.125 3.14599 0.125 3.77588H3.125C3.125 3.94164 3.05915 4.10061 2.94194 4.21782L0.820622 2.0965ZM0.125 3.77588V13.7759H3.125V3.77588H0.125ZM0.125 13.7754C0.124904 14.095 0.206481 14.4093 0.36199 14.6884L2.98281 13.2285C3.07611 13.396 3.12506 13.5846 3.125 13.7763L0.125 13.7754ZM0.36199 14.6884C0.517498 14.9676 0.741774 15.2024 1.01353 15.3705L2.59188 12.8193C2.75494 12.9202 2.8895 13.061 2.98281 13.2285L0.36199 14.6884ZM1.01353 15.3705C1.28527 15.5386 1.59548 15.6345 1.91472 15.649L2.05117 12.6522C2.24271 12.6609 2.42884 12.7184 2.59188 12.8193L1.01353 15.3705ZM1.91472 15.649C2.23397 15.6636 2.55161 15.5963 2.8375 15.4536L1.4975 12.7695C1.66902 12.6838 1.85961 12.6434 2.05117 12.6522L1.91472 15.649ZM2.83832 15.4531L4.67082 14.5369L3.32918 11.8536L1.49668 12.7699L2.83832 15.4531ZM3.32918 14.5369L5.16168 15.4531L6.50332 12.7699L4.67082 11.8536L3.32918 14.5369ZM5.1625 15.4536C5.42257 15.5834 5.70928 15.651 6 15.651V12.651C6.17444 12.651 6.34646 12.6916 6.5025 12.7695L5.1625 15.4536ZM6 15.651C6.29072 15.651 6.57743 15.5834 6.8375 15.4536L5.4975 12.7695C5.65353 12.6916 5.82556 12.651 6 12.651V15.651ZM6.83832 15.4531L8.67082 14.5369L7.32918 11.8536L5.49668 12.7699L6.83832 15.4531ZM7.32918 14.5369L9.16168 15.4531L10.5033 12.7699L8.67082 11.8536L7.32918 14.5369ZM9.1625 15.4536C9.42257 15.5834 9.70928 15.651 10 15.651V12.651C10.1744 12.651 10.3465 12.6916 10.5025 12.7695L9.1625 15.4536ZM10 15.651C10.2907 15.651 10.5774 15.5834 10.8375 15.4536L9.4975 12.7695C9.65353 12.6916 9.82556 12.651 10 12.651V15.651ZM10.8383 15.4531L12.6708 14.5369L11.3292 11.8536L9.49668 12.7699L10.8383 15.4531ZM11.3292 14.5369L13.1617 15.4531L14.5033 12.7699L12.6708 11.8536L11.3292 14.5369ZM13.1634 15.454C13.4235 15.5836 13.7102 15.6511 14.0009 15.6509L13.9991 12.6509C14.1735 12.6508 14.3455 12.6912 14.5016 12.769L13.1634 15.454ZM13.9977 15.6509C14.349 15.6514 14.6933 15.553 14.9913 15.367L13.4024 12.8223C13.5823 12.7099 13.7903 12.6505 14.0023 12.6509L13.9977 15.6509ZM14.9844 15.3713C15.2563 15.2035 15.4809 14.9691 15.6368 14.6901L13.0179 13.2267C13.1115 13.0593 13.2462 12.9186 13.4094 12.818L14.9844 15.3713ZM15.6368 14.6901C15.7926 14.4112 15.8746 14.097 15.875 13.7775L12.875 13.7742C12.8752 13.5825 12.9244 13.394 13.0179 13.2267L15.6368 14.6901ZM15.875 13.7759V3.77588H12.875V13.7759H15.875ZM15.875 3.77588C15.875 3.14599 15.6248 2.5419 15.1794 2.0965L13.0581 4.21782C12.9408 4.10061 12.875 3.94164 12.875 3.77588H15.875ZM15.1794 2.0965C14.734 1.6511 14.1299 1.40088 13.5 1.40088V4.40088C13.3342 4.40088 13.1753 4.33503 13.0581 4.21782L15.1794 2.0965ZM14.2958 11.8274L12.8383 11.0986L11.4967 13.7819L12.9542 14.5106L14.2958 11.8274ZM12.8375 11.0982C12.5774 10.9684 12.2907 10.9008 12 10.9008V13.9008C11.8256 13.9008 11.6535 13.8602 11.4975 13.7823L12.8375 11.0982ZM12 10.9008C11.7093 10.9008 11.4226 10.9684 11.1625 11.0982L12.5025 13.7823C12.3465 13.8602 12.1744 13.9008 12 13.9008V10.9008ZM11.1617 11.0986L9.32918 12.0149L10.6708 14.6981L12.5033 13.7819L11.1617 11.0986ZM10.6708 12.0149L8.83832 11.0986L7.49668 13.7819L9.32918 14.6981L10.6708 12.0149ZM8.8375 11.0982C8.57742 10.9684 8.29071 10.9008 8 10.9008V13.9008C7.82557 13.9008 7.65354 13.8602 7.4975 13.7823L8.8375 11.0982ZM8 10.9008C7.70929 10.9008 7.42258 10.9684 7.1625 11.0982L8.5025 13.7823C8.34646 13.8602 8.17443 13.9008 8 13.9008V10.9008ZM7.16168 11.0986L5.32918 12.0149L6.67082 14.6981L8.50332 13.7819L7.16168 11.0986ZM6.67082 12.0149L4.83832 11.0986L3.49668 13.7819L5.32918 14.6981L6.67082 12.0149ZM4.8375 11.0982C4.57742 10.9684 4.29071 10.9008 4 10.9008V13.9008C3.82557 13.9008 3.65354 13.8602 3.4975 13.7823L4.8375 11.0982ZM4 10.9008C3.70929 10.9008 3.42258 10.9684 3.1625 11.0982L4.5025 13.7823C4.34646 13.8602 4.17443 13.9008 4 13.9008V10.9008ZM3.16168 11.0986L1.70418 11.8274L3.04582 14.5106L4.50332 13.7819L3.16168 11.0986ZM3.875 13.169V3.77588H0.875V13.169H3.875ZM3.875 3.77588C3.875 4.14055 3.73014 4.49029 3.47227 4.74815L1.35095 2.62683C1.0462 2.93158 0.875 3.34491 0.875 3.77588H3.875ZM3.47227 4.74815C3.21441 5.00602 2.86467 5.15088 2.5 5.15088V2.15088C2.06903 2.15088 1.6557 2.32208 1.35095 2.62683L3.47227 4.74815ZM2.5 5.15088H13.5V2.15088H2.5V5.15088ZM13.5 5.15088C13.1353 5.15088 12.7856 5.00601 12.5277 4.74815L14.649 2.62683C14.3443 2.32209 13.931 2.15088 13.5 2.15088V5.15088ZM12.5277 4.74815C12.2699 4.4903 12.125 4.14057 12.125 3.77588H15.125C15.125 3.34489 14.9538 2.93157 14.649 2.62683L12.5277 4.74815ZM12.125 3.77588V13.169H15.125V3.77588H12.125ZM7.67812 5.4374C7.52262 5.12539 7.2832 4.86291 6.98677 4.67944L5.40794 7.23038C5.23008 7.1203 5.08643 6.96281 4.99313 6.7756L7.67812 5.4374ZM6.98677 4.67944C6.69033 4.49597 6.34862 4.39878 6 4.39878V7.39878C5.79083 7.39878 5.5858 7.34046 5.40794 7.23038L6.98677 4.67944ZM6 4.39878C5.65138 4.39878 5.30967 4.49597 5.01323 4.67944L6.59206 7.23038C6.4142 7.34046 6.20917 7.39878 6 7.39878V4.39878ZM5.01323 4.67944C4.7168 4.86291 4.47738 5.12539 4.32187 5.4374L7.00687 6.7756C6.91357 6.96281 6.76992 7.1203 6.59206 7.23038L5.01323 4.67944ZM4.32273 5.43568L2.32273 9.43568L5.00602 10.7773L7.00602 6.77732L4.32273 5.43568ZM2.32223 9.43668C2.21228 9.65701 2.14679 9.89684 2.12952 10.1425L5.12213 10.3529C5.11177 10.5003 5.07248 10.6441 5.00652 10.7763L2.32223 9.43668ZM2.12952 10.1425C2.11225 10.3881 2.14352 10.6347 2.22157 10.8683L5.06691 9.91748C5.11373 10.0576 5.13249 10.2056 5.12213 10.3529L2.12952 10.1425ZM2.22157 10.8683C2.29961 11.1018 2.42289 11.3177 2.58436 11.5036L4.84926 9.53633C4.94613 9.64785 5.02009 9.77737 5.06691 9.91748L2.22157 10.8683ZM2.58436 11.5036C2.74584 11.6895 2.94235 11.8418 3.16268 11.9518L4.50232 9.26749C4.6345 9.33345 4.75239 9.42481 4.84926 9.53633L2.58436 11.5036ZM3.16268 11.9518C3.38301 12.0617 3.62284 12.1272 3.86847 12.1445L4.07891 9.15187C4.22626 9.16224 4.37014 9.20152 4.50232 9.26749L3.16268 11.9518ZM3.86847 12.1445C4.11408 12.1618 4.36071 12.1305 4.59428 12.0524L3.64348 9.2071C3.78361 9.16027 3.93157 9.14151 4.07891 9.15187L3.86847 12.1445ZM4.59428 12.0524C4.82784 11.9744 5.04373 11.8511 5.22962 11.6896L3.26233 9.42474C3.37385 9.32788 3.50336 9.25392 3.64348 9.2071L4.59428 12.0524ZM5.22962 11.6896C5.41553 11.5282 5.56781 11.3316 5.67777 11.1113L2.99348 9.77168C3.05945 9.63951 3.1508 9.52162 3.26233 9.42474L5.22962 11.6896ZM5.67663 11.1136L6.07288 10.323L3.39087 8.97879L2.99462 9.76941L5.67663 11.1136ZM4.73187 11.1509H7.26813V8.15088H4.73187V11.1509ZM5.92648 10.3217L6.32273 11.1142L9.00602 9.77256L8.60977 8.98006L5.92648 10.3217ZM6.32223 11.1132C6.5443 11.5582 6.93404 11.8967 7.40572 12.0543L8.35652 9.20897C8.63949 9.30353 8.87329 9.50662 9.00652 9.77356L6.32223 11.1132ZM7.40572 12.0543C7.8774 12.2119 8.39236 12.1757 8.83732 11.9536L7.49768 9.26936C7.76461 9.13614 8.07355 9.11441 8.35652 9.20897L7.40572 12.0543ZM8.83732 11.9536C9.28228 11.7316 9.62082 11.3418 9.77843 10.8702L6.93309 9.91936C7.02765 9.63639 7.23074 9.40258 7.49768 9.26936L8.83732 11.9536ZM9.77843 10.8702C9.93605 10.3985 9.89983 9.88353 9.67776 9.43856L6.99348 10.7782C6.86026 10.5113 6.83854 10.2023 6.93309 9.91936L9.77843 10.8702ZM9.67739 9.43781L7.67739 5.43593L4.99386 6.77707L6.99386 10.7789L9.67739 9.43781ZM6.44852 9.5717L7.34164 7.78545L4.65836 6.44381L3.76523 8.23006L6.44852 9.5717ZM4.65836 7.78545L5.55148 9.5717L8.23477 8.23006L7.34164 6.44381L4.65836 7.78545ZM6.89313 7.40088H5.10687V10.4009H6.89313V7.40088ZM10.875 8.27588C10.875 7.97751 10.9935 7.69136 11.2045 7.48038L13.3258 9.6017C13.6775 9.25007 13.875 8.77315 13.875 8.27588H10.875ZM11.2045 7.48038C11.4155 7.2694 11.7016 7.15088 12 7.15088V10.1509C12.4973 10.1509 12.9742 9.95334 13.3258 9.6017L11.2045 7.48038ZM12 7.15088H10.875V10.1509H12V7.15088ZM9.375 8.65088V9.77588H12.375V8.65088H9.375ZM9.375 9.77588C9.375 9.47751 9.49352 9.19136 9.70451 8.98038L11.8258 11.1017C12.1775 10.7501 12.375 10.2732 12.375 9.77588H9.375ZM9.70451 8.98038C9.91549 8.7694 10.2016 8.65088 10.5 8.65088V11.6509C10.9973 11.6509 11.4742 11.4533 11.8258 11.1017L9.70451 8.98038ZM10.5 8.65088C10.7984 8.65088 11.0845 8.7694 11.2955 8.98038L9.17417 11.1017C9.52581 11.4533 10.0027 11.6509 10.5 11.6509V8.65088ZM11.2955 8.98038C11.5065 9.19136 11.625 9.47751 11.625 9.77588H8.625C8.625 10.2732 8.82254 10.7501 9.17417 11.1017L11.2955 8.98038ZM11.625 9.77588V8.65088H8.625V9.77588H11.625ZM10.125 7.15088H9V10.1509H10.125V7.15088ZM9 7.15088C9.29836 7.15088 9.58451 7.2694 9.7955 7.48038L7.67417 9.6017C8.02581 9.95334 8.50272 10.1509 9 10.1509V7.15088ZM9.7955 7.48038C10.0065 7.69136 10.125 7.97751 10.125 8.27588H7.125C7.125 8.77315 7.32254 9.25007 7.67417 9.6017L9.7955 7.48038ZM10.125 8.27588C10.125 8.57424 10.0065 8.86039 9.7955 9.07137L7.67417 6.95005C7.32254 7.30168 7.125 7.7786 7.125 8.27588H10.125ZM9.7955 9.07137C9.58452 9.28235 9.29837 9.40088 9 9.40088V6.40088C8.50272 6.40088 8.02581 6.59842 7.67417 6.95005L9.7955 9.07137ZM9 9.40088H10.125V6.40088H9V9.40088ZM11.625 7.90088V6.77588H8.625V7.90088H11.625ZM11.625 6.77588C11.625 7.07425 11.5065 7.36039 11.2955 7.57137L9.17417 5.45005C8.82254 5.80169 8.625 6.2786 8.625 6.77588H11.625ZM11.2955 7.57137C11.0845 7.78235 10.7984 7.90088 10.5 7.90088V4.90088C10.0027 4.90088 9.5258 5.09842 9.17417 5.45005L11.2955 7.57137ZM10.5 7.90088C10.2016 7.90088 9.91548 7.78235 9.70451 7.57137L11.8258 5.45005C11.4742 5.09842 10.9973 4.90088 10.5 4.90088V7.90088ZM9.70451 7.57137C9.49353 7.36039 9.375 7.07425 9.375 6.77588H12.375C12.375 6.2786 12.1775 5.80169 11.8258 5.45005L9.70451 7.57137ZM9.375 6.77588V7.90088H12.375V6.77588H9.375ZM10.875 9.40088H12V6.40088H10.875V9.40088ZM12 9.40088C11.7016 9.40088 11.4155 9.28235 11.2045 9.07137L13.3258 6.95005C12.9742 6.59842 12.4973 6.40088 12 6.40088V9.40088ZM11.2045 9.07137C10.9935 8.86039 10.875 8.57424 10.875 8.27588H13.875C13.875 7.7786 13.6775 7.30168 13.3258 6.95005L11.2045 9.07137Z" fill="#94A3B8" mask="url(#path-1-inside-1_2746_24975)"/>
</svg>
