<svg width="124" height="111" viewBox="0 0 124 111" fill="none" xmlns="http://www.w3.org/2000/svg">
<path d="M107.085 50.6112C107.085 61.818 103.425 72.1323 97.3553 80.4631C93.9835 84.926 89.9373 88.893 85.3131 91.9675C77.7988 97.0255 68.8395 100.001 59.2058 100.001C32.713 100.001 11.3262 77.8845 11.3262 50.7103C11.3262 23.437 32.8094 1.41992 59.2058 1.41992C68.8395 1.41992 77.7988 4.3952 85.3131 9.35399C89.9373 12.4284 93.9835 16.3955 97.3553 20.8584C103.521 29.09 107.085 39.4043 107.085 50.6112Z" fill="#EDF5FF"/>
<path d="M88.5883 19.9653H61.2285V9.35352H97.1623C97.2586 9.35352 97.355 9.35352 97.355 9.35352C102.943 9.45269 107.47 14.2131 107.47 20.0645H95.6209" fill="#E2E8F0"/>
<path d="M98.1262 9.35352C96.0068 9.45269 94.0801 10.4445 92.635 11.8329C92.5387 11.9321 92.346 12.1304 92.2496 12.3288C90.9973 13.8164 90.1302 15.7999 90.1302 17.8826V81.3552C90.1302 87.3057 85.506 92.0662 79.7258 92.0662H29.2451V17.3868C29.3415 15.2049 30.2085 13.2214 31.5572 11.8329C33.0986 10.2461 35.1217 9.35352 37.4338 9.35352H88.1072H97.7409C97.9335 9.35352 98.0299 9.35352 98.1262 9.35352Z" fill="white"/>
<path d="M80.0148 23.8331H65.0825C64.5045 23.8331 64.1191 23.3372 64.1191 22.8414C64.1191 22.3455 64.6008 21.8496 65.0825 21.8496H80.1111C80.6891 21.8496 81.0745 22.3455 81.0745 22.8414C81.0745 23.3372 80.5928 23.8331 80.0148 23.8331Z" fill="#E2E8F0"/>
<path d="M58.0501 23.8331H38.4936C37.9156 23.8331 37.5303 23.3372 37.5303 22.8414C37.5303 22.3455 38.012 21.8496 38.4936 21.8496H58.0501C58.6281 21.8496 59.0135 22.3455 59.0135 22.8414C59.0135 23.3372 58.6281 23.8331 58.0501 23.8331Z" fill="#E2E8F0"/>
<path d="M70.5739 33.8497H51.1138C50.5357 33.8497 50.1504 33.3538 50.1504 32.858C50.1504 32.2629 50.6321 31.8662 51.1138 31.8662H70.5739C71.1519 31.8662 71.5372 32.3621 71.5372 32.858C71.5372 33.453 71.1519 33.8497 70.5739 33.8497Z" fill="#E2E8F0"/>
<path d="M44.8519 33.8497H38.4936C37.9156 33.8497 37.5303 33.3538 37.5303 32.858C37.5303 32.2629 38.012 31.8662 38.4936 31.8662H44.8519C45.4299 31.8662 45.8153 32.3621 45.8153 32.858C45.8153 33.453 45.3336 33.8497 44.8519 33.8497Z" fill="#F1F5F9"/>
<path d="M80.0147 43.9659H68.0688C67.4908 43.9659 67.1055 43.4701 67.1055 42.9742C67.1055 42.3791 67.5872 41.9824 68.0688 41.9824H80.0147C80.5927 41.9824 80.978 42.4783 80.978 42.9742C81.0744 43.4701 80.5927 43.9659 80.0147 43.9659Z" fill="#F1F5F9"/>
<path d="M62.3853 43.9659H38.4936C37.9156 43.9659 37.5303 43.4701 37.5303 42.9742C37.5303 42.3791 38.012 41.9824 38.4936 41.9824H62.3853C62.9633 41.9824 63.3486 42.4783 63.3486 42.9742C63.3486 43.4701 62.9633 43.9659 62.3853 43.9659Z" fill="#E2E8F0"/>
<path d="M70.5737 53.9825H57.3755C56.7975 53.9825 56.4121 53.4867 56.4121 52.9908C56.4121 52.4949 56.8938 51.999 57.3755 51.999H70.5737C71.1517 51.999 71.537 52.4949 71.537 52.9908C71.537 53.4867 71.1517 53.9825 70.5737 53.9825Z" fill="#E2E8F0"/>
<path d="M51.6918 53.9825H38.4936C37.9156 53.9825 37.5303 53.4867 37.5303 52.9908C37.5303 52.4949 38.012 51.999 38.4936 51.999H51.6918C52.2699 51.999 52.6552 52.4949 52.6552 52.9908C52.6552 53.4867 52.2699 53.9825 51.6918 53.9825Z" fill="#F1F5F9"/>
<path d="M80.0148 64.0987H70.8628C70.2848 64.0987 69.8994 63.6029 69.8994 63.107C69.8994 62.5119 70.3811 62.1152 70.8628 62.1152H80.0148C80.5928 62.1152 80.9782 62.6111 80.9782 63.107C81.0745 63.6029 80.5928 64.0987 80.0148 64.0987Z" fill="#E2E8F0"/>
<path d="M64.89 64.0987H49.4761C48.898 64.0987 48.5127 63.6029 48.5127 63.107C48.5127 62.5119 48.9944 62.1152 49.4761 62.1152H64.89C65.468 62.1152 65.8534 62.6111 65.8534 63.107C65.9497 63.6029 65.468 64.0987 64.89 64.0987Z" fill="#F1F5F9"/>
<path d="M43.7918 64.0987H38.397C37.8189 64.0987 37.4336 63.6029 37.4336 63.107C37.4336 62.5119 37.9153 62.1152 38.397 62.1152H43.7918C44.3699 62.1152 44.7552 62.6111 44.7552 63.107C44.7552 63.6029 44.3699 64.0987 43.7918 64.0987Z" fill="#E2E8F0"/>
<path d="M70.5734 74.1154H61.4214C60.8434 74.1154 60.458 73.6195 60.458 73.1236C60.458 72.6277 60.9397 72.1318 61.4214 72.1318H70.5734C71.1514 72.1318 71.5368 72.6277 71.5368 73.1236C71.5368 73.6195 71.1514 74.1154 70.5734 74.1154Z" fill="#E2E8F0"/>
<path d="M55.449 74.1154H38.4936C37.9156 74.1154 37.5303 73.6195 37.5303 73.1236C37.5303 72.6277 38.012 72.1318 38.4936 72.1318H55.449C56.027 72.1318 56.4124 72.6277 56.4124 73.1236C56.4124 73.6195 55.9307 74.1154 55.449 74.1154Z" fill="#F1F5F9"/>
<path d="M57.5683 83.5371H70.8628C70.8628 85.8182 71.7298 88 73.2712 89.4877C74.7163 90.9753 76.7394 91.9671 79.0515 91.9671H19.0334C16.8176 91.9671 14.6982 91.0745 13.2532 89.4877C11.8081 88 10.8447 85.9173 10.8447 83.5371H50.2466C50.343 83.5371 57.6646 83.6363 57.5683 83.5371Z" fill="#E2E8F0"/>
<path d="M19.8848 11.8176C21.1497 11.3943 21.8419 9.99554 21.4307 8.69331C21.0196 7.39107 19.6608 6.67852 18.3959 7.10178C17.1309 7.52504 16.4388 8.92384 16.8499 10.2261C17.2611 11.5283 18.6198 12.2409 19.8848 11.8176Z" fill="#F1F5F9"/>
<path d="M25.1422 3.72858C26.0024 3.44076 26.473 2.48959 26.1935 1.60407C25.9139 0.718546 24.9899 0.234012 24.1297 0.52183C23.2696 0.809647 22.7989 1.76082 23.0785 2.64635C23.3581 3.53187 24.282 4.0164 25.1422 3.72858Z" fill="#F1F5F9"/>
<path d="M3.13773 57.1562C4.04223 57.1562 4.77547 56.4013 4.77547 55.4702C4.77547 54.539 4.04223 53.7842 3.13773 53.7842C2.23324 53.7842 1.5 54.539 1.5 55.4702C1.5 56.4013 2.23324 57.1562 3.13773 57.1562Z" fill="#CBD5E1"/>
<path d="M116.968 36.2493C118.46 34.8452 118.564 32.4614 117.201 30.9249C115.837 29.3884 113.521 29.2811 112.029 30.6852C110.536 32.0893 110.432 34.4731 111.796 36.0096C113.16 37.5461 115.475 37.6534 116.968 36.2493Z" fill="#F1F5F9"/>
<path d="M116.238 19.7674C117.089 19.7674 117.779 19.0569 117.779 18.1806C117.779 17.3042 117.089 16.5938 116.238 16.5938C115.386 16.5938 114.696 17.3042 114.696 18.1806C114.696 19.0569 115.386 19.7674 116.238 19.7674Z" fill="#CBD5E1"/>
<g filter="url(#filter0_d_1533_70749)">
<path d="M114.71 83.6456C114.421 84.9349 114.036 86.1252 113.554 87.3153C113.457 87.6129 113.361 87.811 113.169 88.1085C111.531 91.3813 108.93 94.0592 105.751 95.646C105.365 95.8444 104.98 96.0427 104.691 96.1419C101.608 97.4312 98.14 97.927 94.6719 97.1336C85.5198 95.1501 79.6432 85.9265 81.5699 76.5048C83.4967 67.0831 92.4561 61.0337 101.608 63.0172C104.884 63.7115 107.774 65.3973 110.182 67.7775C114.132 71.9429 115.866 77.8934 114.71 83.6456Z" fill="url(#paint0_linear_1533_70749)"/>
</g>
<path d="M105.063 85.7188L102.558 83.1403C104.485 80.165 103.714 76.198 100.824 74.2144C97.9341 72.2309 94.0806 73.0243 92.1539 75.9996C90.2272 78.9749 90.9979 82.9419 93.888 84.9254C96.0074 86.3139 98.7048 86.3139 100.728 84.9254L103.233 87.504C103.714 87.9999 104.485 87.9999 104.967 87.504C105.545 87.0081 105.545 86.2147 105.063 85.7188ZM94.755 82.2477C93.3099 80.76 93.3099 78.2807 94.755 76.793C96.2001 75.3054 98.6085 75.3054 100.054 76.793C101.499 78.2807 101.499 80.76 100.054 82.2477C98.5122 83.7353 96.2001 83.7353 94.755 82.2477Z" fill="url(#paint1_linear_1533_70749)"/>
<defs>
<filter id="filter0_d_1533_70749" x="73.2041" y="59.6406" width="49.8584" height="50.875" filterUnits="userSpaceOnUse" color-interpolation-filters="sRGB">
<feFlood flood-opacity="0" result="BackgroundImageFix"/>
<feColorMatrix in="SourceAlpha" type="matrix" values="0 0 0 0 0 0 0 0 0 0 0 0 0 0 0 0 0 0 127 0" result="hardAlpha"/>
<feOffset dy="5"/>
<feGaussianBlur stdDeviation="4"/>
<feColorMatrix type="matrix" values="0 0 0 0 0.1125 0 0 0 0 0.295916 0 0 0 0 1 0 0 0 0.22 0"/>
<feBlend mode="normal" in2="BackgroundImageFix" result="effect1_dropShadow_1533_70749"/>
<feBlend mode="normal" in="SourceGraphic" in2="effect1_dropShadow_1533_70749" result="shape"/>
</filter>
<linearGradient id="paint0_linear_1533_70749" x1="81.2041" y1="64.5414" x2="122.448" y2="80.5824" gradientUnits="userSpaceOnUse">
<stop stop-color="#2472E3"/>
<stop offset="1" stop-color="#0550BB"/>
</linearGradient>
<linearGradient id="paint1_linear_1533_70749" x1="105.566" y1="73.2401" x2="92.9343" y2="89.3217" gradientUnits="userSpaceOnUse">
<stop stop-color="#FCFCFD"/>
<stop offset="1" stop-color="#FCFCFD" stop-opacity="0.8"/>
</linearGradient>
</defs>
</svg>
