<svg width="12" height="12" viewBox="0 0 12 12" fill="none" xmlns="http://www.w3.org/2000/svg">
<g clip-path="url(#clip0_2017_81424)">
<path d="M7.5 1V5.05075C7.84256 5.24798 8.12709 5.53201 8.32494 5.87421C8.52278 6.21642 8.62695 6.60472 8.62695 7C8.62695 7.39528 8.52278 7.78358 8.32494 8.12579C8.12709 8.46799 7.84256 8.75202 7.5 8.94925V13L3.50025 10H0V4H3.50025L7.5 1ZM6 4L3.99975 5.5H1.5V8.5H3.99975L6 10V4Z" fill="#94A3B8"/>
<path d="M10.2002 3.4002L9.60094 2.9502L8.7002 4.14945L9.30019 4.59945C9.52772 4.77047 9.72974 4.973 9.90019 5.20095C10.2774 5.70195 10.5002 6.3237 10.5002 7.0002C10.5002 7.67669 10.2774 8.29769 9.90019 8.80019C9.72963 9.02761 9.52761 9.22963 9.30019 9.4002L8.7002 9.85094L9.60094 11.0509L10.2009 10.6002C10.5415 10.3442 10.8441 10.0412 11.0994 9.70019C11.6849 8.92187 12.0011 7.97412 12.0002 7.0002C12.0002 5.9877 11.6649 5.0517 11.1002 4.3002C10.8444 3.95907 10.5413 3.65604 10.2002 3.4002Z" fill="#94A3B8"/>
</g>
<defs>
<clipPath id="clip0_2017_81424">
<rect width="12" height="12" fill="white"/>
</clipPath>
</defs>
</svg>
