<svg width="124" height="112" viewBox="0 0 124 112" fill="none" xmlns="http://www.w3.org/2000/svg">
<path d="M107.086 51.4383C107.086 62.6452 103.425 72.9595 97.3558 81.2902C93.984 85.7532 89.9378 89.7202 85.3136 92.7946C77.7993 97.8526 68.84 100.828 59.2062 100.828C32.7135 100.828 11.3267 78.7117 11.3267 51.5375C11.3267 24.2641 32.8099 2.24707 59.2062 2.24707C68.84 2.24707 77.7993 5.22235 85.3136 10.1811C89.9378 13.2556 93.984 17.2226 97.3558 21.6855C103.521 29.9171 107.086 40.2314 107.086 51.4383Z" fill="#EDF5FF"/>
<path d="M88.589 20.793H61.2292V10.1812H97.163C97.2594 10.1812 97.3557 10.1812 97.3557 10.1812C102.943 10.2803 107.471 15.0408 107.471 20.8921H95.6216" fill="#E2E8F0"/>
<path d="M98.1265 10.1812C96.007 10.2803 94.0803 11.2721 92.6352 12.6605C92.5389 12.7597 92.3462 12.9581 92.2499 13.1564C90.9975 14.6441 90.1305 16.6276 90.1305 18.7103V82.1828C90.1305 88.1334 85.5063 92.8938 79.7261 92.8938H29.2454V18.2144C29.3417 16.0325 30.2087 14.049 31.5575 12.6605C33.0988 11.0737 35.1219 10.1812 37.434 10.1812H88.1074H97.7411C97.9338 10.1812 98.0301 10.1812 98.1265 10.1812Z" fill="white"/>
<path d="M80.015 24.6608H65.0828C64.5047 24.6608 64.1194 24.1649 64.1194 23.669C64.1194 23.1731 64.6011 22.6772 65.0828 22.6772H80.1114C80.6894 22.6772 81.0747 23.1731 81.0747 23.669C81.0747 24.1649 80.593 24.6608 80.015 24.6608Z" fill="#E2E8F0"/>
<path d="M58.0501 24.6608H38.4936C37.9156 24.6608 37.5303 24.1649 37.5303 23.669C37.5303 23.1731 38.012 22.6772 38.4936 22.6772H58.0501C58.6281 22.6772 59.0135 23.1731 59.0135 23.669C59.0135 24.1649 58.6281 24.6608 58.0501 24.6608Z" fill="#E2E8F0"/>
<path d="M70.5741 34.6779H51.114C50.536 34.6779 50.1506 34.182 50.1506 33.6861C50.1506 33.091 50.6323 32.6943 51.114 32.6943H70.5741C71.1521 32.6943 71.5375 33.1902 71.5375 33.6861C71.5375 34.2811 71.1521 34.6779 70.5741 34.6779Z" fill="#E2E8F0"/>
<path d="M44.8519 34.6779H38.4936C37.9156 34.6779 37.5303 34.182 37.5303 33.6861C37.5303 33.091 38.012 32.6943 38.4936 32.6943H44.8519C45.4299 32.6943 45.8153 33.1902 45.8153 33.6861C45.8153 34.2811 45.3336 34.6779 44.8519 34.6779Z" fill="#F1F5F9"/>
<path d="M80.0149 44.7936H68.0691C67.4911 44.7936 67.1057 44.2977 67.1057 43.8018C67.1057 43.2068 67.5874 42.8101 68.0691 42.8101H80.0149C80.5929 42.8101 80.9783 43.3059 80.9783 43.8018C81.0746 44.2977 80.5929 44.7936 80.0149 44.7936Z" fill="#F1F5F9"/>
<path d="M62.3853 44.7936H38.4936C37.9156 44.7936 37.5303 44.2977 37.5303 43.8018C37.5303 43.2068 38.012 42.8101 38.4936 42.8101H62.3853C62.9633 42.8101 63.3486 43.3059 63.3486 43.8018C63.3486 44.2977 62.9633 44.7936 62.3853 44.7936Z" fill="#E2E8F0"/>
<path d="M70.5739 54.8102H57.3757C56.7977 54.8102 56.4124 54.3143 56.4124 53.8184C56.4124 53.3225 56.894 52.8267 57.3757 52.8267H70.5739C71.1519 52.8267 71.5373 53.3225 71.5373 53.8184C71.5373 54.3143 71.1519 54.8102 70.5739 54.8102Z" fill="#E2E8F0"/>
<path d="M51.6918 54.8102H38.4936C37.9156 54.8102 37.5303 54.3143 37.5303 53.8184C37.5303 53.3225 38.012 52.8267 38.4936 52.8267H51.6918C52.2699 52.8267 52.6552 53.3225 52.6552 53.8184C52.6552 54.3143 52.2699 54.8102 51.6918 54.8102Z" fill="#F1F5F9"/>
<path d="M80.0151 64.9259H70.863C70.285 64.9259 69.8997 64.43 69.8997 63.9341C69.8997 63.3391 70.3813 62.9424 70.863 62.9424H80.0151C80.5931 62.9424 80.9784 63.4383 80.9784 63.9341C81.0748 64.43 80.5931 64.9259 80.0151 64.9259Z" fill="#E2E8F0"/>
<path d="M64.8903 64.9259H49.4763C48.8983 64.9259 48.5129 64.43 48.5129 63.9341C48.5129 63.3391 48.9946 62.9424 49.4763 62.9424H64.8903C65.4683 62.9424 65.8536 63.4383 65.8536 63.9341C65.95 64.43 65.4683 64.9259 64.8903 64.9259Z" fill="#F1F5F9"/>
<path d="M43.7923 64.9259H38.3975C37.8194 64.9259 37.4341 64.43 37.4341 63.9341C37.4341 63.3391 37.9158 62.9424 38.3975 62.9424H43.7923C44.3704 62.9424 44.7557 63.4383 44.7557 63.9341C44.7557 64.43 44.3704 64.9259 43.7923 64.9259Z" fill="#E2E8F0"/>
<path d="M70.5739 74.943H61.4219C60.8438 74.943 60.4585 74.4471 60.4585 73.9512C60.4585 73.4554 60.9402 72.9595 61.4219 72.9595H70.5739C71.1519 72.9595 71.5373 73.4554 71.5373 73.9512C71.5373 74.4471 71.1519 74.943 70.5739 74.943Z" fill="#E2E8F0"/>
<path d="M55.449 74.943H38.4936C37.9156 74.943 37.5303 74.4471 37.5303 73.9512C37.5303 73.4554 38.012 72.9595 38.4936 72.9595H55.449C56.027 72.9595 56.4124 73.4554 56.4124 73.9512C56.4124 74.4471 55.9307 74.943 55.449 74.943Z" fill="#F1F5F9"/>
<path d="M57.5685 84.3647H70.863C70.863 86.6458 71.7301 88.8277 73.2715 90.3153C74.7165 91.8029 76.7396 92.7947 79.0517 92.7947H19.0336C16.8179 92.7947 14.6985 91.9021 13.2534 90.3153C11.8083 88.8277 10.845 86.745 10.845 84.3647H50.2469C50.3432 84.3647 57.6648 84.4639 57.5685 84.3647Z" fill="#E2E8F0"/>
<path d="M19.8853 12.6452C21.1502 12.222 21.8424 10.8232 21.4312 9.52094C21.0201 8.21871 19.6613 7.50616 18.3964 7.92942C17.1314 8.35268 16.4393 9.75147 16.8504 11.0537C17.2615 12.3559 18.6203 13.0685 19.8853 12.6452Z" fill="#F1F5F9"/>
<path d="M25.1427 4.55573C26.0029 4.26791 26.4735 3.31673 26.1939 2.43121C25.9144 1.54569 24.9904 1.06116 24.1302 1.34898C23.2701 1.6368 22.7994 2.58797 23.079 3.47349C23.3586 4.35901 24.2825 4.84355 25.1427 4.55573Z" fill="#F1F5F9"/>
<path d="M3.13773 57.9838C4.04223 57.9838 4.77547 57.229 4.77547 56.2978C4.77547 55.3667 4.04223 54.6118 3.13773 54.6118C2.23324 54.6118 1.5 55.3667 1.5 56.2978C1.5 57.229 2.23324 57.9838 3.13773 57.9838Z" fill="#CBD5E1"/>
<path d="M116.967 37.0769C118.46 35.6728 118.564 33.289 117.2 31.7525C115.836 30.216 113.521 30.1087 112.028 31.5128C110.536 32.9169 110.431 35.3007 111.795 36.8372C113.159 38.3737 115.475 38.481 116.967 37.0769Z" fill="#F1F5F9"/>
<path d="M116.238 20.5945C117.089 20.5945 117.779 19.8841 117.779 19.0077C117.779 18.1313 117.089 17.4209 116.238 17.4209C115.386 17.4209 114.696 18.1313 114.696 19.0077C114.696 19.8841 115.386 20.5945 116.238 20.5945Z" fill="#CBD5E1"/>
<g filter="url(#filter0_d_1537_82234)">
<path d="M114.71 84.4737C114.421 85.763 114.035 86.9533 113.554 88.1435C113.457 88.441 113.361 88.6391 113.168 88.9367C111.531 92.2095 108.93 94.8873 105.75 96.4741C105.365 96.6725 104.98 96.8708 104.691 96.97C101.608 98.2593 98.1398 98.7552 94.6716 97.9618C85.5196 95.9782 79.6429 86.7546 81.5697 77.3329C83.4964 67.9112 92.4558 61.8618 101.608 63.8454C104.883 64.5396 107.773 66.2254 110.182 68.6056C114.132 72.771 115.866 78.7215 114.71 84.4737Z" fill="url(#paint0_linear_1537_82234)"/>
</g>
<path d="M105.062 86.5465L102.558 83.9679C104.484 80.9926 103.714 77.0256 100.824 75.0421C97.9334 73.0586 94.0799 73.852 92.1532 76.8272C90.2264 79.8025 90.9971 83.7695 93.8872 85.7531C96.0067 87.1415 98.7041 87.1415 100.727 85.7531L103.232 88.3316C103.714 88.8275 104.484 88.8275 104.966 88.3316C105.544 87.8358 105.544 87.0424 105.062 86.5465ZM94.7543 83.0753C93.3092 81.5877 93.3092 79.1083 94.7543 77.6206C96.1993 76.133 98.6078 76.133 100.053 77.6206C101.498 79.1083 101.498 81.5877 100.053 83.0753C98.5114 84.563 96.1993 84.563 94.7543 83.0753Z" fill="url(#paint1_linear_1537_82234)"/>
<defs>
<filter id="filter0_d_1537_82234" x="73.2039" y="60.4688" width="49.8584" height="50.875" filterUnits="userSpaceOnUse" color-interpolation-filters="sRGB">
<feFlood flood-opacity="0" result="BackgroundImageFix"/>
<feColorMatrix in="SourceAlpha" type="matrix" values="0 0 0 0 0 0 0 0 0 0 0 0 0 0 0 0 0 0 127 0" result="hardAlpha"/>
<feOffset dy="5"/>
<feGaussianBlur stdDeviation="4"/>
<feColorMatrix type="matrix" values="0 0 0 0 0.1125 0 0 0 0 0.295916 0 0 0 0 1 0 0 0 0.22 0"/>
<feBlend mode="normal" in2="BackgroundImageFix" result="effect1_dropShadow_1537_82234"/>
<feBlend mode="normal" in="SourceGraphic" in2="effect1_dropShadow_1537_82234" result="shape"/>
</filter>
<linearGradient id="paint0_linear_1537_82234" x1="81.2039" y1="65.3695" x2="122.448" y2="81.4105" gradientUnits="userSpaceOnUse">
<stop stop-color="#2472E3"/>
<stop offset="1" stop-color="#0550BB"/>
</linearGradient>
<linearGradient id="paint1_linear_1537_82234" x1="105.566" y1="74.0678" x2="92.9336" y2="90.1493" gradientUnits="userSpaceOnUse">
<stop stop-color="#FCFCFD"/>
<stop offset="1" stop-color="#FCFCFD" stop-opacity="0.8"/>
</linearGradient>
</defs>
</svg>
