<svg width="25" height="24" viewBox="0 0 25 24" fill="none" xmlns="http://www.w3.org/2000/svg">
<path d="M12.5 10V14M7.94712 3.42103C9.23941 2.52503 10.8084 2 12.5 2C16.9183 2 20.5 5.58172 20.5 10V11.2367M4.91632 7.44607C4.64633 8.24809 4.5 9.10696 4.5 10V14C4.5 17.6349 6.92416 20.7035 10.244 21.6775M20.1588 16.3187C19.4294 18.7314 17.5911 20.6626 15.2367 21.5196M14.825 6.14635C14.1464 5.7361 13.3508 5.5 12.5 5.5C10.0147 5.5 8 7.51472 8 10V12.95M17 11.04V14C17 16.4853 14.9853 18.5 12.5 18.5C11.6514 18.5 10.8576 18.2651 10.1801 17.8567" stroke="black" stroke-width="1.5" stroke-linecap="round" stroke-linejoin="round"/>
</svg>
