<svg width="12" height="12" viewBox="0 0 12 12" fill="none" xmlns="http://www.w3.org/2000/svg">
<path d="M10.7531 10.534C10.8227 10.491 10.8802 10.4309 10.9201 10.3595C10.9601 10.2879 10.9812 10.2072 10.9812 10.1252V10.125V2.625C10.9812 2.39791 10.891 2.18012 10.7305 2.01954C10.5699 1.85896 10.3521 1.76875 10.125 1.76875H1.875C1.64791 1.76875 1.43012 1.85896 1.26954 2.01954C1.10896 2.18012 1.01875 2.39791 1.01875 2.625V10.1249C1.01875 10.125 1.01875 10.125 1.01875 10.125C1.01874 10.207 1.03967 10.2876 1.07958 10.3593C1.11949 10.4309 1.17706 10.4912 1.2468 10.5343C1.31655 10.5775 1.39618 10.6021 1.47811 10.6058C1.56005 10.6096 1.64158 10.5923 1.71496 10.5557L1.71507 10.5556L3 9.91314L4.28493 10.5556L4.28504 10.5557C4.3518 10.589 4.42539 10.6063 4.5 10.6063C4.57461 10.6063 4.6482 10.589 4.71496 10.5557L4.71507 10.5556L6 9.91314L7.28493 10.5556L7.28504 10.5557C7.3518 10.589 7.42539 10.6063 7.5 10.6063C7.57461 10.6063 7.6482 10.589 7.71496 10.5557L7.71507 10.5556L9 9.91314L10.2849 10.5556L10.2852 10.5557C10.3519 10.589 10.4255 10.6063 10.5001 10.6062L10.5 10.4062M10.7531 10.534C10.6771 10.5814 10.5893 10.6064 10.4997 10.6062L10.5 10.4062M10.7531 10.534C10.753 10.5341 10.7528 10.5342 10.7527 10.5343L10.6477 10.3641M10.7531 10.534C10.7533 10.5339 10.7534 10.5338 10.7536 10.5337L10.6477 10.3641M10.5 10.4062C10.5522 10.4063 10.6034 10.3917 10.6477 10.3641M10.5 10.4062C10.4564 10.4063 10.4134 10.3962 10.3744 10.3767L10.6477 10.3641M2.78493 8.9444L1.98125 9.34624V2.73125H10.0188V9.34624L9.21507 8.9444L9.21496 8.94434C9.1482 8.91101 9.07461 8.89367 9 8.89367C8.92539 8.89367 8.8518 8.91101 8.78504 8.94434L8.78493 8.9444L7.5 9.58686L6.21507 8.9444L6.21496 8.94434C6.1482 8.91101 6.07461 8.89367 6 8.89367C5.92539 8.89367 5.8518 8.91101 5.78504 8.94434L5.78493 8.9444L4.5 9.58686L3.21507 8.9444L3.21496 8.94434C3.1482 8.91101 3.07461 8.89367 3 8.89367C2.92539 8.89367 2.8518 8.91101 2.78504 8.94434L2.78493 8.9444ZM2.5694 7.28353L2.56933 7.28366C2.5411 7.34022 2.52429 7.40178 2.51986 7.46483C2.51543 7.52788 2.52345 7.59119 2.54349 7.65114C2.56352 7.71109 2.59517 7.76651 2.63662 7.81423C2.67807 7.86195 2.72851 7.90104 2.78507 7.92926C2.84162 7.95749 2.90318 7.9743 2.96624 7.97873C3.02929 7.98317 3.0926 7.97514 3.15255 7.95511C3.2125 7.93507 3.26792 7.90343 3.31564 7.86198C3.3633 7.82058 3.40235 7.7702 3.43057 7.71372C3.43061 7.71366 3.43064 7.71359 3.43067 7.71353L3.67238 7.23125H5.32749L5.56933 7.71493C5.56935 7.71498 5.56937 7.71502 5.5694 7.71507C5.62641 7.82922 5.72642 7.91607 5.84745 7.95651C5.96853 7.99697 6.10071 7.98767 6.21493 7.93067C6.32915 7.87367 6.41605 7.77362 6.45651 7.65255C6.49697 7.53147 6.48767 7.39929 6.43067 7.28507L6.43062 7.28497L4.93072 4.28376L4.75172 4.37297L4.93062 4.28356L4.93069 4.2837C4.89078 4.20364 4.82934 4.13629 4.75327 4.08921C4.67719 4.04212 4.58948 4.01717 4.5 4.01717C4.41052 4.01717 4.32281 4.04212 4.24673 4.08921C4.1707 4.13627 4.10928 4.20357 4.06937 4.28358C4.06934 4.28364 4.06931 4.2837 4.06928 4.28376L2.5694 7.28353ZM4.84624 6.26875H4.15376L4.5 5.57628L4.84624 6.26875ZM9.3403 6.34029C9.43055 6.25004 9.48125 6.12763 9.48125 6C9.48125 5.87236 9.43055 5.74996 9.3403 5.6597C9.25004 5.56945 9.12764 5.51875 9 5.51875H8.35625V4.875C8.35625 4.74736 8.30555 4.62496 8.2153 4.53471C8.12504 4.44445 8.00264 4.39375 7.875 4.39375C7.74736 4.39375 7.62496 4.44445 7.5347 4.53471C7.44445 4.62496 7.39375 4.74736 7.39375 4.875V5.51875H6.75C6.62236 5.51875 6.49996 5.56945 6.4097 5.6597C6.31945 5.74996 6.26875 5.87236 6.26875 6C6.26875 6.12763 6.31945 6.25004 6.4097 6.34029C6.49996 6.43055 6.62236 6.48125 6.75 6.48125H7.39375V7.125C7.39375 7.25263 7.44445 7.37504 7.5347 7.46529C7.62496 7.55555 7.74736 7.60625 7.875 7.60625C8.00264 7.60625 8.12504 7.55555 8.2153 7.46529C8.30555 7.37504 8.35625 7.25263 8.35625 7.125V6.48125H9C9.12764 6.48125 9.25004 6.43055 9.3403 6.34029Z" fill="#94A3B8" stroke="#94A3B8" stroke-width="0.4"/>
</svg>
