<svg width="25" height="24" viewBox="0 0 25 24" fill="none" xmlns="http://www.w3.org/2000/svg">
<g clip-path="url(#clip0_166_14396)">
<path d="M16.1452 10C17.5135 10.4263 18.7956 11.1191 19.9133 12.05M23.4132 8.49997C20.4908 5.92394 16.7289 4.50262 12.8332 4.50262C12.2282 4.50262 11.6264 4.5369 11.0305 4.60447M9.36304 15.61C10.3782 14.8888 11.5927 14.5013 12.838 14.5013C14.0834 14.5013 15.2978 14.8888 16.313 15.61M12.8333 19.5H12.8433M2.02661 8.70076C3.36022 7.47869 4.90164 6.47975 6.59176 5.76306M5.56519 12.243C6.96259 11.012 8.67497 10.1302 10.5659 9.73393M16.5316 15.7751C15.5125 14.9763 14.2284 14.5 12.8331 14.5C11.4167 14.5 10.115 14.9908 9.08862 15.8116M3.83325 3L21.8333 21" stroke="black" stroke-width="1.5" stroke-linecap="round" stroke-linejoin="round"/>
</g>
<defs>
<clipPath id="clip0_166_14396">
<rect width="24" height="24" fill="white" transform="translate(0.833252)"/>
</clipPath>
</defs>
</svg>
