<svg width="12" height="10" viewBox="0 0 12 10" fill="none" xmlns="http://www.w3.org/2000/svg">
<g clip-path="url(#clip0_2026_86378)">
<path d="M9.45 6.60051H2.5575C2.475 6.60051 2.4075 6.66801 2.4075 6.75051L2.40563 7.65051C2.40563 7.73301 2.47313 7.80051 2.55563 7.80051H9.45C9.5325 7.80051 9.6 7.73301 9.6 7.65051V6.75051C9.6 6.66801 9.5325 6.60051 9.45 6.60051ZM9.45 8.40051H2.55188C2.46938 8.40051 2.40188 8.46801 2.40188 8.55051L2.4 9.45051C2.4 9.53301 2.4675 9.60051 2.55 9.60051H9.45C9.5325 9.60051 9.6 9.53301 9.6 9.45051V8.55051C9.6 8.46801 9.5325 8.40051 9.45 8.40051ZM9.45 4.80051H2.56125C2.47875 4.80051 2.41125 4.86801 2.41125 4.95051L2.40938 5.85051C2.40938 5.93301 2.47688 6.00051 2.55938 6.00051H9.45C9.5325 6.00051 9.6 5.93301 9.6 5.85051V4.95051C9.6 4.86801 9.5325 4.80051 9.45 4.80051ZM11.4469 2.19426L6.345 0.069884C6.23534 0.0243926 6.11778 0.000976563 5.99906 0.000976562C5.88034 0.000976563 5.76279 0.0243926 5.65313 0.069884L0.553125 2.19426C0.219375 2.33488 0 2.66113 0 3.02488V9.45051C0 9.53301 0.0675 9.60051 0.15 9.60051H1.65C1.7325 9.60051 1.8 9.53301 1.8 9.45051V4.80051C1.8 4.47051 2.07375 4.20051 2.41125 4.20051H9.58875C9.92625 4.20051 10.2 4.47051 10.2 4.80051V9.45051C10.2 9.53301 10.2675 9.60051 10.35 9.60051H11.85C11.9325 9.60051 12 9.53301 12 9.45051V3.02488C12 2.66113 11.7806 2.33488 11.4469 2.19426Z" fill="#94A3B8"/>
</g>
<defs>
<clipPath id="clip0_2026_86378">
<rect width="12" height="9.6" fill="white"/>
</clipPath>
</defs>
</svg>
