<svg width="20" height="21" viewBox="0 0 20 21" fill="none" xmlns="http://www.w3.org/2000/svg">
<path fill-rule="evenodd" clip-rule="evenodd" d="M13.5417 5.55381C13.5417 4.69653 12.562 4.20606 11.875 4.72116L9.30462 6.648C9.02846 6.85505 8.63671 6.799 8.42962 6.52281C8.22261 6.24663 8.27866 5.85489 8.55487 5.64784L11.1251 3.721C12.6355 2.58876 14.7917 3.66552 14.7917 5.55381L14.7917 11.3848C14.7917 11.7301 14.5119 12.0098 14.1667 12.0098C13.8215 12.0098 13.5417 11.7301 13.5417 11.3848L13.5417 5.55381ZM2.89143 3.44294C3.13551 3.19885 3.53124 3.19885 3.77532 3.44294L17.1086 16.7763C17.3527 17.0203 17.3527 17.4161 17.1086 17.6602C16.8645 17.9043 16.4689 17.9043 16.2248 17.6602L14.7148 16.1502C14.3177 17.6507 12.4666 18.3878 11.1251 17.3821L7.56951 14.7166C7.38923 14.5814 7.17 14.5083 6.94469 14.5083L5.00004 14.5083C3.73466 14.5083 2.70837 13.4829 2.70837 12.2174L2.70837 8.88559C2.70837 7.62013 3.73466 6.59472 5.00004 6.59472L5.15933 6.59472L2.89143 4.32682C2.64736 4.08274 2.64736 3.68701 2.89143 3.44294ZM6.40933 7.84472L5.00004 7.84472C4.42447 7.84472 3.95837 8.31102 3.95837 8.88559L3.95837 12.2174C3.95837 12.7921 4.42447 13.2583 5.00004 13.2583L6.94469 13.2583C7.44036 13.2583 7.92268 13.4191 8.31929 13.7164L11.875 16.3819C12.562 16.897 13.5417 16.4066 13.5417 15.5493L13.5417 14.9771L6.40933 7.84472Z" fill="#64748B"/>
</svg>
