<svg width="12" height="12" viewBox="0 0 12 12" fill="none" xmlns="http://www.w3.org/2000/svg">
<path d="M4.87646 5.25C5.0242 5.25 5.17049 5.2209 5.30698 5.16436C5.44348 5.10783 5.56749 5.02496 5.67196 4.9205C5.77643 4.81603 5.85929 4.69201 5.91583 4.55552C5.97237 4.41903 6.00146 4.27274 6.00146 4.125C6.00146 3.97726 5.97237 3.83097 5.91583 3.69448C5.85929 3.55799 5.77643 3.43397 5.67196 3.3295C5.56749 3.22504 5.44348 3.14217 5.30698 3.08564C5.17049 3.0291 5.0242 3 4.87646 3C4.5781 3 4.29195 3.11853 4.08097 3.3295C3.86999 3.54048 3.75146 3.82663 3.75146 4.125C3.75146 4.42337 3.86999 4.70952 4.08097 4.9205C4.29195 5.13147 4.5781 5.25 4.87646 5.25Z" fill="#94A3B8"/>
<path d="M10.5 10.5C10.5 10.8978 10.342 11.2794 10.0607 11.5607C9.77936 11.842 9.39782 12 9 12H3C2.60218 12 2.22064 11.842 1.93934 11.5607C1.65804 11.2794 1.5 10.8978 1.5 10.5V1.5C1.5 1.10218 1.65804 0.720644 1.93934 0.43934C2.22064 0.158035 2.60218 0 3 0L7.125 0L10.5 3.375V10.5ZM3 0.75C2.80109 0.75 2.61032 0.829018 2.46967 0.96967C2.32902 1.11032 2.25 1.30109 2.25 1.5V9L3.918 7.332C3.97711 7.27303 4.05421 7.23547 4.13709 7.22528C4.21996 7.21509 4.30386 7.23285 4.3755 7.27575L6 8.25L7.61775 5.985C7.6494 5.94073 7.69031 5.90388 7.73764 5.87701C7.78497 5.85014 7.83757 5.8339 7.89181 5.8294C7.94605 5.82491 8.00061 5.83227 8.05171 5.85098C8.10282 5.86969 8.14924 5.8993 8.18775 5.93775L9.75 7.5V3.375H8.25C7.95163 3.375 7.66548 3.25647 7.4545 3.0455C7.24353 2.83452 7.125 2.54837 7.125 2.25V0.75H3Z" fill="#94A3B8"/>
</svg>
