<svg width="11" height="12" viewBox="0 0 11 12" fill="none" xmlns="http://www.w3.org/2000/svg">
<g clip-path="url(#clip0_2017_81280)">
<path d="M4.2862 2.57143V1.71429H3.42906V2.57143H4.2862ZM5.14335 3.42857V2.57143H4.2862V3.42857H5.14335ZM4.2862 4.28571V3.42857H3.42906V4.28571H4.2862ZM5.14335 5.14286V4.28571H4.2862V5.14286H5.14335ZM9.83085 2.54464C9.95585 2.66964 10.063 2.83929 10.1523 3.05357C10.2416 3.26786 10.2862 3.46429 10.2862 3.64286V11.3571C10.2862 11.5357 10.2237 11.6875 10.0987 11.8125C9.9737 11.9375 9.82192 12 9.64335 12H0.643345C0.464774 12 0.312988 11.9375 0.187988 11.8125C0.0629883 11.6875 0.000488281 11.5357 0.000488281 11.3571V0.642857C0.000488281 0.464286 0.0629883 0.3125 0.187988 0.1875C0.312988 0.0625 0.464774 0 0.643345 0H6.64335C6.82192 0 7.01835 0.0446429 7.23263 0.133929C7.44692 0.223214 7.61656 0.330357 7.74156 0.455357L9.83085 2.54464ZM6.85763 0.910714V3.42857H9.37549C9.33085 3.29911 9.28174 3.20759 9.22817 3.15402L7.13219 1.05804C7.07861 1.00446 6.9871 0.955357 6.85763 0.910714ZM9.42906 11.1429V4.28571H6.64335C6.46477 4.28571 6.31299 4.22321 6.18799 4.09821C6.06299 3.97321 6.00049 3.82143 6.00049 3.64286V0.857143H5.14335V1.71429H4.2862V0.857143H0.857631V11.1429H9.42906ZM5.2304 6.31473L5.94692 8.65179C5.98263 8.77232 6.00049 8.88839 6.00049 9C6.00049 9.37054 5.83866 9.67746 5.515 9.92076C5.19134 10.1641 4.78174 10.2857 4.2862 10.2857C3.79067 10.2857 3.38107 10.1641 3.05741 9.92076C2.73375 9.67746 2.57192 9.37054 2.57192 9C2.57192 8.88839 2.58977 8.77232 2.62549 8.65179C2.71924 8.37054 2.9871 7.48661 3.42906 6V5.14286H4.2862V6H4.81522C4.91343 6 5.00049 6.02902 5.07638 6.08705C5.15227 6.14509 5.20361 6.22098 5.2304 6.31473ZM4.2862 9.42857C4.52281 9.42857 4.72482 9.38616 4.89223 9.30134C5.05964 9.21652 5.14335 9.11607 5.14335 9C5.14335 8.88393 5.05964 8.78348 4.89223 8.69866C4.72482 8.61384 4.52281 8.57143 4.2862 8.57143C4.0496 8.57143 3.84759 8.61384 3.68018 8.69866C3.51277 8.78348 3.42906 8.88393 3.42906 9C3.42906 9.11607 3.51277 9.21652 3.68018 9.30134C3.84759 9.38616 4.0496 9.42857 4.2862 9.42857Z" fill="#94A3B8"/>
</g>
<defs>
<clipPath id="clip0_2017_81280">
<rect width="10.2863" height="12" fill="white"/>
</clipPath>
</defs>
</svg>
