<svg width="16" height="17" viewBox="0 0 16 17" fill="none" xmlns="http://www.w3.org/2000/svg">
<path d="M5.33337 8.94238H2.66671C1.93033 8.94238 1.33337 9.53934 1.33337 10.2757V12.9424C1.33337 13.6788 1.93033 14.2757 2.66671 14.2757H5.33337C6.06975 14.2757 6.66671 13.6788 6.66671 12.9424V10.2757C6.66671 9.53934 6.06975 8.94238 5.33337 8.94238Z" stroke="#94A3B8" stroke-width="1.5" stroke-linecap="round" stroke-linejoin="round"/>
<path d="M4 8.94238V10.9424" stroke="#94A3B8" stroke-width="1.5" stroke-linecap="round" stroke-linejoin="round"/>
<path d="M9.33337 2.27588H6.66671C5.93033 2.27588 5.33337 2.87283 5.33337 3.60921V6.27588C5.33337 7.01226 5.93033 7.60921 6.66671 7.60921H9.33337C10.0698 7.60921 10.6667 7.01226 10.6667 6.27588V3.60921C10.6667 2.87283 10.0698 2.27588 9.33337 2.27588Z" stroke="#94A3B8" stroke-width="1.5" stroke-linecap="round" stroke-linejoin="round"/>
<path d="M8 2.27588V4.27588" stroke="#94A3B8" stroke-width="1.5" stroke-linecap="round" stroke-linejoin="round"/>
<path d="M13.3334 8.94238H10.6667C9.93033 8.94238 9.33337 9.53934 9.33337 10.2757V12.9424C9.33337 13.6788 9.93033 14.2757 10.6667 14.2757H13.3334C14.0698 14.2757 14.6667 13.6788 14.6667 12.9424V10.2757C14.6667 9.53934 14.0698 8.94238 13.3334 8.94238Z" stroke="#94A3B8" stroke-width="1.5" stroke-linecap="round" stroke-linejoin="round"/>
<path d="M12 8.94238V10.9424" stroke="#94A3B8" stroke-width="1.5" stroke-linecap="round" stroke-linejoin="round"/>
</svg>
