<svg width="311" height="188" viewBox="0 0 311 188" fill="none" xmlns="http://www.w3.org/2000/svg">
<g clip-path="url(#clip0_172_14761)">
<path d="M237.843 185.385C233.874 182.002 231.464 176.656 232.096 171.453C232.728 166.249 236.644 161.465 241.723 160.36C246.802 159.255 252.593 162.314 254.135 167.32C254.984 157.668 255.963 147.612 261.049 139.393C265.654 131.95 273.63 126.625 282.274 125.672C290.919 124.72 300.02 128.318 305.411 135.202C310.802 142.086 312.122 152.094 308.346 159.998C305.565 165.82 300.44 170.153 295.071 173.678C277.721 184.973 256.912 189.566 236.473 186.613L237.843 185.385Z" fill="#F2F2F2"/>
<path d="M296.863 128.517C289.73 134.379 283.187 140.935 277.327 148.09C268.157 159.25 260.736 171.762 255.323 185.191C254.927 186.17 256.504 186.597 256.896 185.628C265.752 163.804 279.889 144.568 298.016 129.681C298.83 129.012 297.67 127.854 296.863 128.517Z" fill="white"/>
<path d="M100.294 184.466C105.745 179.818 109.056 172.477 108.188 165.329C107.32 158.182 101.941 151.612 94.965 150.094C87.9886 148.576 80.036 152.777 77.9171 159.654C76.7509 146.397 75.4071 132.585 68.4217 121.295C62.0965 111.073 51.1413 103.759 39.2682 102.45C27.3952 101.142 14.8944 106.084 7.48963 115.539C0.0848508 124.994 -1.72818 138.741 3.45794 149.596C7.27837 157.593 14.3169 163.544 21.6916 168.386C45.2194 183.833 74.4056 190.275 102.177 186.152" fill="#F2F2F2"/>
<path d="M19.2307 106.358C29.0274 114.409 38.0149 123.413 46.0631 133.241C54.1126 143.059 61.1993 153.641 67.2236 164.84C70.591 171.121 73.616 177.584 76.2851 184.199C76.8293 185.544 74.6638 186.13 74.1256 184.799C69.398 173.138 63.5491 161.972 56.6626 151.462C49.8097 140.99 41.9661 131.213 33.2421 122.27C28.3077 117.213 23.1016 112.435 17.6472 107.955C16.5292 107.037 18.1219 105.447 19.2307 106.358L19.2307 106.358Z" fill="white"/>
<path d="M223.023 187.091H92.9656V52.4506C92.9656 23.8049 116.063 0.5 144.454 0.5H171.535C199.925 0.5 223.023 23.8049 223.023 52.4506V187.091Z" fill="#F2F2F2"/>
<path d="M195.943 187.091H92.9655V52.4506C92.9371 41.4742 96.3819 30.7752 102.798 21.9114C103.035 21.5861 103.271 21.2651 103.514 20.9475C106.618 16.8404 110.311 13.2233 114.473 10.2156C114.708 10.0431 114.944 9.8735 115.183 9.70392C118.665 7.27264 122.432 5.28511 126.397 3.78658C126.633 3.69653 126.873 3.6063 127.112 3.51975C130.699 2.22838 134.417 1.3438 138.197 0.88234C138.431 0.850038 138.672 0.82476 138.913 0.799482C142.597 0.402044 146.312 0.402044 149.996 0.799482C150.236 0.82476 150.477 0.850034 150.714 0.882686C154.493 1.34418 158.21 2.22865 161.796 3.51976C162.035 3.60631 162.275 3.69654 162.511 3.78677C166.428 5.2664 170.15 7.22426 173.595 9.61668C173.835 9.78257 174.074 9.95215 174.31 10.1217C176.643 11.8017 178.834 13.6732 180.861 15.7173C182.486 17.3568 184.001 19.1045 185.395 20.9486C185.637 21.2651 185.873 21.5862 186.109 21.9109C192.526 30.7748 195.971 41.474 195.943 52.4506V187.091Z" fill="#CCCCCC"/>
<path d="M187.569 126.871C190.718 126.871 193.27 124.296 193.27 121.119C193.27 117.942 190.718 115.367 187.569 115.367C184.42 115.367 181.868 117.942 181.868 121.119C181.868 124.296 184.42 126.871 187.569 126.871Z" fill="#0056D2"/>
<path d="M212.369 183.058H208L205.922 166.057L212.369 166.057L212.369 183.058Z" fill="#FFB8B8"/>
<path d="M204.88 181.798H213.305V187.151H199.575C199.575 186.448 199.712 185.752 199.979 185.102C200.246 184.453 200.636 183.863 201.129 183.366C201.621 182.869 202.206 182.475 202.85 182.206C203.493 181.937 204.183 181.798 204.88 181.798Z" fill="#2F2E41"/>
<path d="M234.104 183.058H229.736L227.657 166.057L234.105 166.057L234.104 183.058Z" fill="#FFB8B8"/>
<path d="M226.615 181.798H235.04V187.151H221.311C221.311 186.448 221.448 185.752 221.715 185.102C221.981 184.453 222.372 183.863 222.864 183.366C223.357 182.869 223.942 182.475 224.585 182.206C225.229 181.937 225.919 181.798 226.615 181.798Z" fill="#2F2E41"/>
<path d="M190.454 122.258C190.14 121.791 189.931 121.26 189.842 120.703C189.753 120.145 189.787 119.575 189.94 119.032C190.093 118.489 190.363 117.986 190.729 117.56C191.096 117.133 191.551 116.793 192.062 116.562L206.912 75.2657L214.219 79.2892L197.263 118.754C197.589 119.646 197.58 120.627 197.237 121.513C196.894 122.398 196.241 123.126 195.401 123.558C194.562 123.99 193.595 124.096 192.683 123.856C191.771 123.617 190.978 123.048 190.454 122.258Z" fill="#FFB8B8"/>
<path d="M231.873 130.018C231.387 129.737 230.969 129.353 230.647 128.891C230.325 128.429 230.107 127.902 230.008 127.346C229.91 126.79 229.934 126.219 230.078 125.674C230.222 125.128 230.483 124.621 230.842 124.188L226.242 80.503L234.557 80.8863L236.469 123.856C237.15 124.513 237.568 125.4 237.645 126.347C237.721 127.295 237.45 128.238 236.884 128.997C236.317 129.757 235.494 130.28 234.57 130.468C233.647 130.657 232.687 130.496 231.873 130.018Z" fill="#FFB8B8"/>
<path d="M218.607 67.6164C223.44 67.6164 227.358 63.663 227.358 58.7862C227.358 53.9095 223.44 49.9561 218.607 49.9561C213.773 49.9561 209.855 53.9095 209.855 58.7862C209.855 63.663 213.773 67.6164 218.607 67.6164Z" fill="#FFB8B8"/>
<path d="M231.817 120.083H205.432L205.464 119.876C205.512 119.566 210.166 88.7993 206.733 78.7338C206.389 77.7447 206.419 76.6619 206.818 75.6939C207.218 74.726 207.958 73.9412 208.896 73.4907C213.803 71.1591 223.223 68.2881 231.173 75.2557C232.343 76.2979 233.257 77.6004 233.842 79.0603C234.427 80.5201 234.667 82.0973 234.544 83.667L231.817 120.083Z" fill="#0056D2"/>
<path d="M210.5 93.3461L198.621 90.9146L204.189 77.6017C204.522 76.3122 205.349 75.2088 206.487 74.5334C207.626 73.858 208.983 73.6657 210.262 73.9988C211.541 74.3319 212.636 75.1631 213.309 76.3101C213.981 77.4572 214.175 78.8264 213.848 80.1174L210.5 93.3461Z" fill="#0056D2"/>
<path d="M225.713 97.8608L224.999 81.344C224.458 78.2391 226.219 75.304 228.928 74.8242C231.638 74.3462 234.285 76.4996 234.829 79.6273L237.513 95.0607L225.713 97.8608Z" fill="#0056D2"/>
<path d="M230.939 118.106C235.184 134.419 235.648 155.161 234.502 177.786L228.801 177.067L218.468 133.924L212.767 177.786L206.353 177.426C204.437 153.687 202.571 133.308 205.64 119.903L230.939 118.106Z" fill="#2F2E41"/>
<path d="M224.373 65.6104C222.74 67.3652 219.708 66.4232 219.496 64.026C219.479 63.8399 219.48 63.6525 219.499 63.4667C219.609 62.4048 220.217 61.4408 220.072 60.3196C220.039 60.0405 219.936 59.7746 219.772 59.547C218.471 57.7892 215.417 60.3332 214.189 58.7419C213.436 57.7662 214.321 56.2299 213.744 55.1394C212.981 53.7 210.722 54.41 209.306 53.6218C207.73 52.7447 207.824 50.3051 208.862 48.8212C210.127 47.0116 212.345 46.0459 214.536 45.9067C216.726 45.7676 218.902 46.365 220.947 47.1692C223.27 48.0828 225.574 49.3455 227.004 51.407C228.743 53.914 228.911 57.2844 228.041 60.2159C227.512 61.9991 225.706 64.1775 224.373 65.6104Z" fill="#2F2E41"/>
<path d="M167.615 148.083H121.293C120.683 148.086 120.097 147.845 119.662 147.413C119.228 146.98 118.982 146.392 118.977 145.776V41.4548C118.982 40.8393 119.228 40.2508 119.662 39.8184C120.097 39.386 120.683 39.145 121.293 39.1483H167.615C168.225 39.145 168.812 39.386 169.246 39.8184C169.68 40.2508 169.926 40.8393 169.931 41.4548V145.776C169.926 146.392 169.68 146.98 169.246 147.413C168.812 147.845 168.225 148.086 167.615 148.083Z" fill="white"/>
<path d="M169.931 72.9035H118.977V73.6226H169.931V72.9035Z" fill="#CCCCCC"/>
<path d="M170.109 113.928H119.155V114.647H170.109V113.928Z" fill="#CCCCCC"/>
<path d="M135.724 39.1484H135.011V148.442H135.724V39.1484Z" fill="#CCCCCC"/>
<path d="M153.54 39.1484H152.828V148.442H153.54V39.1484Z" fill="#CCCCCC"/>
</g>
<defs>
<clipPath id="clip0_172_14761">
<rect width="310" height="187" fill="white" transform="translate(0.5 0.5)"/>
</clipPath>
</defs>
</svg>
