<svg width="16" height="16" viewBox="0 0 16 16" fill="none" xmlns="http://www.w3.org/2000/svg">
<path d="M6 2.66669H3.33334C2.96515 2.66669 2.66667 2.96516 2.66667 3.33335V6.00002C2.66667 6.36821 2.96515 6.66669 3.33334 6.66669H6C6.36819 6.66669 6.66667 6.36821 6.66667 6.00002V3.33335C6.66667 2.96516 6.36819 2.66669 6 2.66669Z" stroke="#0F172A" stroke-width="1.5" stroke-linecap="round" stroke-linejoin="round"/>
<path d="M12.6667 2.66669H10C9.63182 2.66669 9.33334 2.96516 9.33334 3.33335V6.00002C9.33334 6.36821 9.63182 6.66669 10 6.66669H12.6667C13.0349 6.66669 13.3333 6.36821 13.3333 6.00002V3.33335C13.3333 2.96516 13.0349 2.66669 12.6667 2.66669Z" stroke="#0F172A" stroke-width="1.5" stroke-linecap="round" stroke-linejoin="round"/>
<path d="M6 9.33337H3.33334C2.96515 9.33337 2.66667 9.63185 2.66667 10V12.6667C2.66667 13.0349 2.96515 13.3334 3.33334 13.3334H6C6.36819 13.3334 6.66667 13.0349 6.66667 12.6667V10C6.66667 9.63185 6.36819 9.33337 6 9.33337Z" stroke="#0F172A" stroke-width="1.5" stroke-linecap="round" stroke-linejoin="round"/>
<path d="M12.6667 9.33337H10C9.63182 9.33337 9.33334 9.63185 9.33334 10V12.6667C9.33334 13.0349 9.63182 13.3334 10 13.3334H12.6667C13.0349 13.3334 13.3333 13.0349 13.3333 12.6667V10C13.3333 9.63185 13.0349 9.33337 12.6667 9.33337Z" stroke="#0F172A" stroke-width="1.5" stroke-linecap="round" stroke-linejoin="round"/>
</svg>
