<svg width="44" height="44" viewBox="0 0 44 44" fill="none" xmlns="http://www.w3.org/2000/svg">
<rect x="0.5" y="0.5" width="43" height="43" rx="21.5" stroke="#F1F5F9"/>
<path d="M23.6667 18.6667V17C23.6667 16.558 23.4911 16.1341 23.1785 15.8215C22.866 15.509 22.442 15.3334 22 15.3334H16.1667C15.7246 15.3334 15.3007 15.509 14.9882 15.8215C14.6756 16.1341 14.5 16.558 14.5 17V27C14.5 27.4421 14.6756 27.866 14.9882 28.1786C15.3007 28.4911 15.7246 28.6667 16.1667 28.6667H22C22.442 28.6667 22.866 28.4911 23.1785 28.1786C23.4911 27.866 23.6667 27.4421 23.6667 27V25.3334" stroke="#0F172A" stroke-width="1.5" stroke-linecap="round" stroke-linejoin="round"/>
<path d="M17.8333 22H29.4999L26.9999 19.5M26.9999 24.5L29.4999 22" stroke="#0F172A" stroke-width="1.5" stroke-linecap="round" stroke-linejoin="round"/>
</svg>
