<svg width="25" height="24" viewBox="0 0 25 24" fill="none" xmlns="http://www.w3.org/2000/svg">
<path d="M12.5 21C17.4706 21 21.5 16.9706 21.5 12C21.5 7.02944 17.4706 3 12.5 3C7.52944 3 3.5 7.02944 3.5 12C3.5 16.9706 7.52944 21 12.5 21Z" stroke="#475569" stroke-width="1.5" stroke-linecap="round" stroke-linejoin="round"/>
<path d="M10 15C10.3259 15.3326 10.7148 15.5968 11.1441 15.7772C11.5734 15.9576 12.0344 16.0505 12.5 16.0505C12.9656 16.0505 13.4266 15.9576 13.8559 15.7772C14.2852 15.5968 14.6741 15.3326 15 15M9.5 10H9.51H9.5ZM15.5 10H15.51H15.5Z" stroke="#475569" stroke-width="1.5" stroke-linecap="round" stroke-linejoin="round"/>
</svg>
