<svg width="44" height="44" viewBox="0 0 44 44" fill="none" xmlns="http://www.w3.org/2000/svg">
<rect x="0.5" y="0.5" width="43" height="43" rx="21.5" stroke="#F1F5F9"/>
<path d="M19.5001 16.1667H17.8334C17.3914 16.1667 16.9675 16.3423 16.6549 16.6548C16.3423 16.9674 16.1667 17.3913 16.1667 17.8333V27.8333C16.1667 28.2754 16.3423 28.6993 16.6549 29.0118C16.9675 29.3244 17.3914 29.5 17.8334 29.5H26.1667C26.6088 29.5 27.0327 29.3244 27.3453 29.0118C27.6578 28.6993 27.8334 28.2754 27.8334 27.8333V17.8333C27.8334 17.3913 27.6578 16.9674 27.3453 16.6548C27.0327 16.3423 26.6088 16.1667 26.1667 16.1667H24.5001M19.5001 16.1667C19.5001 16.6087 19.6757 17.0326 19.9882 17.3452C20.3008 17.6577 20.7247 17.8333 21.1667 17.8333H22.8334C23.2754 17.8333 23.6994 17.6577 24.0119 17.3452C24.3245 17.0326 24.5001 16.6087 24.5001 16.1667M19.5001 16.1667C19.5001 15.7246 19.6757 15.3007 19.9882 14.9882C20.3008 14.6756 20.7247 14.5 21.1667 14.5H22.8334C23.2754 14.5 23.6994 14.6756 24.0119 14.9882C24.3245 15.3007 24.5001 15.7246 24.5001 16.1667M22.0001 22H24.5001M22.0001 25.3333H24.5001M19.5001 22H19.5084M19.5001 25.3333H19.5084" stroke="#0F172A" stroke-width="1.5" stroke-linecap="round" stroke-linejoin="round"/>
</svg>
