<svg width="44" height="44" viewBox="0 0 44 44" fill="none" xmlns="http://www.w3.org/2000/svg">
<rect x="0.5" y="0.5" width="43" height="43" rx="21.5" stroke="#F1F5F9"/>
<path d="M22.0167 14.425C19.2584 14.425 17.0167 16.6667 17.0167 19.425V21.8334C17.0167 22.3417 16.8001 23.1167 16.5417 23.55L15.5834 25.1417C14.9917 26.125 15.4001 27.2167 16.4834 27.5834C20.0751 28.7834 23.9501 28.7834 27.5417 27.5834C28.5501 27.25 28.9917 26.0584 28.4417 25.1417L27.4834 23.55C27.2334 23.1167 27.0167 22.3417 27.0167 21.8334V19.425C27.0167 16.675 24.7667 14.425 22.0167 14.425Z" stroke="#0F172A" stroke-width="1.5" stroke-miterlimit="10" stroke-linecap="round"/>
<path d="M23.5584 14.6667C23.3001 14.5917 23.0334 14.5334 22.7584 14.5C21.9584 14.4 21.1918 14.4584 20.4751 14.6667C20.7168 14.05 21.3168 13.6167 22.0168 13.6167C22.7168 13.6167 23.3168 14.05 23.5584 14.6667Z" stroke="#0F172A" stroke-width="1.5" stroke-miterlimit="10" stroke-linecap="round" stroke-linejoin="round"/>
<path d="M24.5166 27.8833C24.5166 29.2583 23.3916 30.3833 22.0166 30.3833C21.3333 30.3833 20.6999 30.1 20.2499 29.65C19.7999 29.2 19.5166 28.5666 19.5166 27.8833" stroke="#0F172A" stroke-width="1.5" stroke-miterlimit="10"/>
</svg>
