<svg width="44" height="44" viewBox="0 0 44 44" fill="none" xmlns="http://www.w3.org/2000/svg">
<rect x="0.5" y="0.5" width="43" height="43" rx="21.5" stroke="#F1F5F9"/>
<path d="M26.1667 21.1666H17.8334C16.9129 21.1666 16.1667 21.9128 16.1667 22.8333V27.8333C16.1667 28.7538 16.9129 29.5 17.8334 29.5H26.1667C27.0872 29.5 27.8334 28.7538 27.8334 27.8333V22.8333C27.8334 21.9128 27.0872 21.1666 26.1667 21.1666Z" stroke="#0F172A" stroke-width="1.5" stroke-linecap="round" stroke-linejoin="round"/>
<path d="M22.0001 26.1667C22.4603 26.1667 22.8334 25.7936 22.8334 25.3333C22.8334 24.8731 22.4603 24.5 22.0001 24.5C21.5398 24.5 21.1667 24.8731 21.1667 25.3333C21.1667 25.7936 21.5398 26.1667 22.0001 26.1667Z" stroke="#0F172A" stroke-width="1.5" stroke-linecap="round" stroke-linejoin="round"/>
<path d="M18.6667 21.1667V17.8333C18.6667 16.9493 19.0179 16.1014 19.6431 15.4763C20.2682 14.8512 21.116 14.5 22.0001 14.5C22.8841 14.5 23.732 14.8512 24.3571 15.4763C24.9822 16.1014 25.3334 16.9493 25.3334 17.8333V21.1667" stroke="#0F172A" stroke-width="1.5" stroke-linecap="round" stroke-linejoin="round"/>
</svg>
