<svg width="44" height="44" viewBox="0 0 44 44" fill="none" xmlns="http://www.w3.org/2000/svg">
<rect x="0.5" y="0.5" width="43" height="43" rx="21.5" stroke="#F1F5F9"/>
<path d="M22 13.25C17.168 13.25 13.25 17.168 13.25 22C13.25 26.832 17.168 30.75 22 30.75C26.832 30.75 30.75 26.832 30.75 22C30.75 17.168 26.832 13.25 22 13.25ZM22 29.2656C17.9883 29.2656 14.7344 26.0117 14.7344 22C14.7344 17.9883 17.9883 14.7344 22 14.7344C26.0117 14.7344 29.2656 17.9883 29.2656 22C29.2656 26.0117 26.0117 29.2656 22 29.2656Z" fill="#0F172A"/>
<path d="M24.1797 18.1855C23.5937 17.6719 22.8203 17.3906 22 17.3906C21.1797 17.3906 20.4062 17.6738 19.8203 18.1855C19.2109 18.7188 18.875 19.4355 18.875 20.2031V20.3516C18.875 20.4375 18.9453 20.5078 19.0312 20.5078H19.9688C20.0547 20.5078 20.125 20.4375 20.125 20.3516V20.2031C20.125 19.3418 20.9668 18.6406 22 18.6406C23.0332 18.6406 23.875 19.3418 23.875 20.2031C23.875 20.8105 23.4453 21.3672 22.7793 21.623C22.3652 21.7813 22.0137 22.0586 21.7617 22.4219C21.5059 22.793 21.373 23.2383 21.373 23.6895V24.1094C21.373 24.1953 21.4434 24.2656 21.5293 24.2656H22.4668C22.5527 24.2656 22.623 24.1953 22.623 24.1094V23.666C22.6241 23.4764 22.6822 23.2915 22.7898 23.1354C22.8975 22.9793 23.0497 22.8593 23.2266 22.791C24.3789 22.3477 25.123 21.332 25.123 20.2031C25.125 19.4355 24.7891 18.7188 24.1797 18.1855ZM21.2188 26.2969C21.2188 26.5041 21.3011 26.7028 21.4476 26.8493C21.5941 26.9958 21.7928 27.0781 22 27.0781C22.2072 27.0781 22.4059 26.9958 22.5524 26.8493C22.6989 26.7028 22.7812 26.5041 22.7812 26.2969C22.7812 26.0897 22.6989 25.891 22.5524 25.7444C22.4059 25.5979 22.2072 25.5156 22 25.5156C21.7928 25.5156 21.5941 25.5979 21.4476 25.7444C21.3011 25.891 21.2188 26.0897 21.2188 26.2969Z" fill="#0F172A"/>
</svg>
