<svg width="44" height="44" viewBox="0 0 44 44" fill="none" xmlns="http://www.w3.org/2000/svg">
<rect x="0.5" y="0.5" width="43" height="43" rx="21.5" stroke="#F1F5F9"/>
<path d="M22.1334 21.0584C22.05 21.05 21.95 21.05 21.8584 21.0584C19.875 20.9917 18.3 19.3667 18.3 17.3667C18.3 15.325 19.95 13.6667 22 13.6667C24.0417 13.6667 25.7 15.325 25.7 17.3667C25.6917 19.3667 24.1167 20.9917 22.1334 21.0584Z" stroke="#0F172A" stroke-width="1.5" stroke-linecap="round" stroke-linejoin="round"/>
<path d="M17.6792 23.1438C15.6626 24.4938 15.6626 26.6938 17.6792 28.0354C19.9709 29.5688 23.7292 29.5688 26.0209 28.0354C28.0376 26.6854 28.0376 24.4854 26.0209 23.1438C23.7376 21.6187 19.9792 21.6187 17.6792 23.1438Z" stroke="#0F172A" stroke-width="1.5" stroke-linecap="round" stroke-linejoin="round"/>
</svg>
