<svg width="16" height="17" viewBox="0 0 16 17" fill="none" xmlns="http://www.w3.org/2000/svg">
<path d="M4.98633 12.3372L7.05299 13.9372C7.31966 14.2038 7.91966 14.3372 8.31966 14.3372H10.853C11.653 14.3372 12.5197 13.7372 12.7197 12.9372L14.3197 8.07049C14.653 7.13715 14.053 6.33715 13.053 6.33715H10.3863C9.98633 6.33715 9.65299 6.00382 9.71966 5.53715L10.053 3.40382C10.1863 2.80382 9.78633 2.13715 9.18633 1.93715C8.65299 1.73715 7.98633 2.00382 7.71966 2.40382L4.98633 6.47049" stroke="#94A3B8" stroke-width="1.5" stroke-miterlimit="10"/>
<path d="M1.58691 12.3371V5.80378C1.58691 4.87044 1.98691 4.53711 2.92025 4.53711H3.58691C4.52025 4.53711 4.92025 4.87044 4.92025 5.80378V12.3371C4.92025 13.2704 4.52025 13.6038 3.58691 13.6038H2.92025C1.98691 13.6038 1.58691 13.2704 1.58691 12.3371Z" stroke="#94A3B8" stroke-width="1.5" stroke-linecap="round" stroke-linejoin="round"/>
</svg>