<svg width="16" height="16" viewBox="0 0 16 16" fill="none" xmlns="http://www.w3.org/2000/svg">
<path d="M12.0002 5.33398H6.66683C5.93045 5.33398 5.3335 5.93094 5.3335 6.66732V12.0007C5.3335 12.737 5.93045 13.334 6.66683 13.334H12.0002C12.7365 13.334 13.3335 12.737 13.3335 12.0007V6.66732C13.3335 5.93094 12.7365 5.33398 12.0002 5.33398Z" stroke="#94A3B8" stroke-width="1.5" stroke-linecap="round" stroke-linejoin="round"/>
<path d="M10.6667 5.33366V4.00033C10.6667 3.6467 10.5263 3.30756 10.2762 3.05752C10.0262 2.80747 9.68704 2.66699 9.33341 2.66699H4.00008C3.64646 2.66699 3.30732 2.80747 3.05727 3.05752C2.80722 3.30756 2.66675 3.6467 2.66675 4.00033V9.33366C2.66675 9.68728 2.80722 10.0264 3.05727 10.2765C3.30732 10.5265 3.64646 10.667 4.00008 10.667H5.33341" stroke="#94A3B8" stroke-width="1.5" stroke-linecap="round" stroke-linejoin="round"/>
</svg>
