<svg width="20" height="20" viewBox="0 0 20 20" fill="none" xmlns="http://www.w3.org/2000/svg">
<path d="M12.4998 18.9587L7.49983 18.9587C2.97483 18.9587 1.0415 17.0253 1.0415 12.5003L1.0415 7.50033C1.0415 2.97533 2.97484 1.04199 7.49984 1.04199L12.4998 1.04199C17.0248 1.04199 18.9582 2.97533 18.9582 7.50033L18.9582 12.5003C18.9582 17.0253 17.0248 18.9587 12.4998 18.9587ZM7.49984 2.29199C3.65817 2.29199 2.2915 3.65866 2.2915 7.50033L2.2915 12.5003C2.2915 16.342 3.65817 17.7087 7.49983 17.7087L12.4998 17.7087C16.3415 17.7087 17.7082 16.342 17.7082 12.5003L17.7082 7.50033C17.7082 3.65866 16.3415 2.29199 12.4998 2.29199L7.49984 2.29199Z" fill="#64748B"/>
<path d="M4.99987 15.6249C4.84153 15.6249 4.6832 15.5665 4.5582 15.4415C4.31653 15.1999 4.31653 14.7999 4.5582 14.5582L14.5582 4.5582C14.7999 4.31654 15.1999 4.31654 15.4415 4.55821C15.6832 4.79987 15.6832 5.19987 15.4415 5.44154L5.44153 15.4415C5.31653 15.5665 5.1582 15.6249 4.99987 15.6249Z" fill="#64748B"/>
<path d="M14.9998 8.95833C14.6582 8.95833 14.3748 8.675 14.3748 8.33333L14.3748 5.625L11.6665 5.625C11.3248 5.625 11.0415 5.34167 11.0415 5C11.0415 4.65833 11.3248 4.375 11.6665 4.375L14.9998 4.375C15.3415 4.375 15.6248 4.65833 15.6248 5L15.6248 8.33333C15.6248 8.675 15.3415 8.95833 14.9998 8.95833Z" fill="#64748B"/>
<path d="M8.33333 15.6253L5 15.6253C4.65833 15.6253 4.375 15.342 4.375 15.0003L4.375 11.667C4.375 11.3253 4.65833 11.042 5 11.042C5.34167 11.042 5.625 11.3253 5.625 11.667L5.625 14.3753L8.33333 14.3753C8.675 14.3753 8.95833 14.6587 8.95833 15.0003C8.95833 15.342 8.675 15.6253 8.33333 15.6253Z" fill="#64748B"/>
</svg>
