<svg width="20" height="24" viewBox="0 0 20 24" fill="none" xmlns="http://www.w3.org/2000/svg">
<path d="M10 17.3333L13.3333 14M13.3333 14L10 10.6667M13.3333 14H6.66667M6.5 21.5H13.5C14.9001 21.5 15.6002 21.5 16.135 21.2275C16.6054 20.9878 16.9878 20.6054 17.2275 20.135C17.5 19.6002 17.5 18.9001 17.5 17.5V10.5C17.5 9.09987 17.5 8.3998 17.2275 7.86502C16.9878 7.39462 16.6054 7.01217 16.135 6.77248C15.6002 6.5 14.9001 6.5 13.5 6.5H6.5C5.09987 6.5 4.3998 6.5 3.86502 6.77248C3.39462 7.01217 3.01217 7.39462 2.77248 7.86502C2.5 8.3998 2.5 9.09987 2.5 10.5V17.5C2.5 18.9001 2.5 19.6002 2.77248 20.135C3.01217 20.6054 3.39462 20.9878 3.86502 21.2275C4.3998 21.5 5.09987 21.5 6.5 21.5Z" stroke="#94A3B8" stroke-width="1.5" stroke-linecap="round" stroke-linejoin="round"/>
</svg>